<?xml version="1.0" encoding="UTF-8" standalone="no"?>
<!-- Created with Inkscape (http://www.inkscape.org/) -->

<svg
   xmlns:dc="http://purl.org/dc/elements/1.1/"
   xmlns:cc="http://creativecommons.org/ns#"
   xmlns:rdf="http://www.w3.org/1999/02/22-rdf-syntax-ns#"
   xmlns:svg="http://www.w3.org/2000/svg"
   xmlns="http://www.w3.org/2000/svg"
   xmlns:xlink="http://www.w3.org/1999/xlink"
   xmlns:sodipodi="http://sodipodi.sourceforge.net/DTD/sodipodi-0.dtd"
   xmlns:inkscape="http://www.inkscape.org/namespaces/inkscape"
   width="210mm"
   height="297mm"
   viewBox="0 0 210 297"
   version="1.1"
   id="svg8"
   inkscape:version="0.92.3 (2405546, 2018-03-11)"
   sodipodi:docname="logo-nrt.svg"
   inkscape:export-filename="/home/pablo/Desktop/projects/nrt-library/images/logo-nrt.png"
   inkscape:export-xdpi="150"
   inkscape:export-ydpi="150">
  <defs
     id="defs2">
    <linearGradient
       inkscape:collect="always"
       id="linearGradient1711">
      <stop
         style="stop-color:#ff0066;stop-opacity:1;"
         offset="0"
         id="stop1707" />
      <stop
         style="stop-color:#ab37c8;stop-opacity:1"
         offset="1"
         id="stop1709" />
    </linearGradient>
    <linearGradient
       inkscape:collect="always"
       xlink:href="#linearGradient1711"
       id="linearGradient1715"
       gradientUnits="userSpaceOnUse"
       x1="-259.36179"
       y1="178.14959"
       x2="-21.660965"
       y2="178.1496" />
  </defs>
  <sodipodi:namedview
     id="base"
     pagecolor="#ffffff"
     bordercolor="#666666"
     borderopacity="1.0"
     inkscape:pageopacity="0.0"
     inkscape:pageshadow="2"
     inkscape:zoom="0.65642159"
     inkscape:cx="-32.010083"
     inkscape:cy="425.33217"
     inkscape:document-units="mm"
     inkscape:current-layer="layer1"
     showgrid="false"
     inkscape:window-width="1600"
     inkscape:window-height="870"
     inkscape:window-x="1600"
     inkscape:window-y="0"
     inkscape:window-maximized="1" />
  <metadata
     id="metadata5">
    <rdf:RDF>
      <cc:Work
         rdf:about="">
        <dc:format>image/svg+xml</dc:format>
        <dc:type
           rdf:resource="http://purl.org/dc/dcmitype/StillImage" />
        <dc:title></dc:title>
      </cc:Work>
    </rdf:RDF>
  </metadata>
  <g
     inkscape:label="Layer 1"
     inkscape:groupmode="layer"
     id="layer1">
    <g
       id="g2004"
       transform="translate(244.25994,-13.704353)">
      <rect
         y="138.53279"
         x="-259.36179"
         height="79.233604"
         width="237.70082"
         id="rect884"
         style="opacity:0.653;vector-effect:none;fill:url(#linearGradient1715);fill-opacity:1;stroke:none;stroke-width:0.40000001;stroke-linecap:butt;stroke-linejoin:round;stroke-miterlimit:4;stroke-dasharray:0.79999999, 0.39999999;stroke-dashoffset:0;stroke-opacity:1" />
      <g
         style="stroke-width:1.66666663"
         transform="matrix(0.15875,0,0,0.15875,-249.9569,192.0473)"
         id="g78">
        <g
           id="g88"
           transform="matrix(0.19531231,0,0,0.19531231,-4.0120232e-4,0.49415708)"
           style="stroke-width:8.53334141">
          <path
             id="path2"
             d="m 498.576,33.193 -174.531,182.735 11.614,11.614 c 0,0 -51.771,31.576 -69.259,50.386 l -78.298,84.201 -21.02,-21.01 -14.973,-14.973 18.679,-17.366 c 17.966,-17.966 31.708,-53.176 31.708,-53.176 L 214.772,267.88 481.058,15.604 c 2.402,-2.27 5.466,-3.41 8.54,-3.41 3.186,0 6.362,1.221 8.785,3.644 0.224,0.224 0.438,0.458 0.641,0.692 4.123,4.794 4,12.011 -0.448,16.663 z"
             style="fill:#ef8c33;stroke-width:29.12716866"
             inkscape:connector-curvature="0" />
          <g
             id="g8"
             style="stroke-width:8.53334141">
	<path
   id="path4"
   d="m 307.401,94.864 18.904,-3.832 c 8.925,-1.81 8.925,-14.564 0,-16.373 L 307.401,70.827 C 288.772,67.051 274.213,52.49 270.436,33.862 l -3.832,-18.904 c -1.81,-8.925 -14.564,-8.925 -16.373,0 l -3.832,18.904 c -3.776,18.629 -18.337,33.188 -36.965,36.965 l -18.904,3.832 c -8.925,1.81 -8.925,14.564 0,16.373 l 18.904,3.832 c 18.629,3.776 33.188,18.337 36.965,36.965 l 3.832,18.904 c 1.81,8.925 14.564,8.925 16.373,0 l 3.832,-18.904 c 3.777,-18.628 18.336,-33.187 36.965,-36.965 z"
   style="fill:#f9d366;stroke-width:8.53334141"
   inkscape:connector-curvature="0" />

	<path
   id="path6"
   d="m 475.893,330.566 21.027,-4.263 c 9.927,-2.012 9.927,-16.2 0,-18.212 l -21.027,-4.263 c -20.721,-4.201 -36.915,-20.396 -41.116,-41.116 l -4.263,-21.027 c -2.012,-9.927 -16.2,-9.927 -18.212,0 l -4.263,21.027 c -4.201,20.721 -20.396,36.915 -41.116,41.116 l -21.027,4.263 c -9.927,2.012 -9.927,16.2 0,18.212 l 21.027,4.263 c 20.721,4.201 36.915,20.396 41.116,41.116 l 4.263,21.027 c 2.012,9.927 16.2,9.927 18.212,0 l 4.263,-21.027 c 4.201,-20.72 20.394,-36.915 41.116,-41.116 z"
   style="fill:#f9d366;stroke-width:8.53334141"
   inkscape:connector-curvature="0" />

</g>
          <path
             id="path10"
             d="M 193.86,367.893 C 177.066,351.099 160.271,334.304 143.477,317.51 103.317,367.637 57.762,413.192 7.634,453.352 24.428,470.146 41.223,486.941 58.017,503.735 98.178,453.607 143.733,408.052 193.86,367.893 Z"
             style="fill:#ef8c33;stroke-width:29.12716866"
             inkscape:connector-curvature="0" />
          <g
             id="g16"
             style="stroke-width:8.53334141">
	<path
   id="path12"
   d="m 159.254,333.286 c -5.26,-5.26 -10.518,-10.518 -15.778,-15.778 -40.16,50.128 -85.715,95.683 -135.843,135.843 5.26,5.26 10.518,10.518 15.778,15.778 50.128,-40.16 95.684,-85.715 135.843,-135.843 z"
   style="fill:#d87625;stroke-width:8.53334141"
   inkscape:connector-curvature="0" />

	<path
   id="path14"
   d="m 499.024,16.53 -261.012,256.381 -70.928,68.21 -14.973,-14.973 18.679,-17.366 c 17.966,-17.966 31.708,-53.176 31.708,-53.176 l 12.276,12.276 266.284,-252.278 c 2.402,-2.27 5.466,-3.41 8.54,-3.41 3.186,0 6.362,1.221 8.785,3.644 0.224,0.224 0.437,0.458 0.641,0.692 z"
   style="fill:#d87625;stroke-width:8.53334141"
   inkscape:connector-curvature="0" />

</g>
          <path
             id="path18"
             d="m 181.691,172.337 c 4.216,0 7.634,-3.418 7.634,-7.634 v -20.231 c 0,-4.216 -3.418,-7.634 -7.634,-7.634 -4.216,0 -7.634,3.418 -7.634,7.634 v 20.231 c 0,4.216 3.418,7.634 7.634,7.634 z"
             inkscape:connector-curvature="0"
             style="stroke-width:8.53334141" />
          <path
             id="path20"
             d="m 181.691,226.805 c 4.216,0 7.634,-3.418 7.634,-7.634 V 198.94 c 0,-4.216 -3.418,-7.634 -7.634,-7.634 -4.216,0 -7.634,3.418 -7.634,7.634 v 20.231 c 0,4.215 3.418,7.634 7.634,7.634 z"
             inkscape:connector-curvature="0"
             style="stroke-width:8.53334141" />
          <path
             id="path22"
             d="m 198.809,174.187 c -4.216,0 -7.634,3.418 -7.634,7.634 0,4.216 3.418,7.634 7.634,7.634 h 20.231 c 4.216,0 7.634,-3.418 7.634,-7.634 0,-4.216 -3.418,-7.634 -7.634,-7.634 z"
             inkscape:connector-curvature="0"
             style="stroke-width:8.53334141" />
          <path
             id="path24"
             d="m 144.342,189.455 h 20.231 c 4.216,0 7.634,-3.418 7.634,-7.634 0,-4.216 -3.418,-7.634 -7.634,-7.634 h -20.231 c -4.216,0 -7.634,3.418 -7.634,7.634 0,4.216 3.418,7.634 7.634,7.634 z"
             inkscape:connector-curvature="0"
             style="stroke-width:8.53334141" />
          <path
             id="path26"
             d="m 189.011,98.514 18.904,3.832 c 15.657,3.175 27.825,15.343 30.999,31 l 3.833,18.904 c 1.529,7.543 7.972,12.81 15.669,12.81 7.697,0 14.141,-5.268 15.67,-12.81 l 3.832,-18.904 c 3.175,-15.657 15.343,-27.826 31,-31 l 18.904,-3.832 c 7.543,-1.53 12.811,-7.973 12.811,-15.67 0,-7.697 -5.269,-14.139 -12.811,-15.669 l -18.904,-3.832 c -15.657,-3.174 -27.826,-15.343 -31,-31 l -3.832,-18.904 c -1.529,-7.543 -7.972,-12.81 -15.67,-12.81 -7.696,0 -14.14,5.268 -15.669,12.81 l -3.833,18.904 c -3.175,15.657 -15.342,27.826 -30.999,31 l -18.904,3.832 c -7.543,1.53 -12.81,7.973 -12.81,15.669 -0.001,7.697 5.267,14.14 12.81,15.67 z m 3.034,-16.374 18.904,-3.832 c 21.682,-4.396 38.534,-21.248 42.93,-42.93 l 3.832,-18.904 c 0.07,-0.347 0.117,-0.576 0.704,-0.576 0.588,0 0.634,0.229 0.704,0.576 l 3.832,18.904 c 4.396,21.683 21.248,38.534 42.931,42.93 l 18.904,3.832 c 0.347,0.07 0.576,0.117 0.576,0.704 0,0.588 -0.23,0.635 -0.576,0.704 l -18.904,3.832 c -21.684,4.396 -38.534,21.248 -42.931,42.93 l -3.832,18.904 c -0.07,0.347 -0.116,0.576 -0.704,0.576 -0.587,0 -0.634,-0.229 -0.704,-0.576 l -3.832,-18.904 c -4.396,-21.683 -21.248,-38.534 -42.93,-42.93 l -18.904,-3.832 c -0.347,-0.07 -0.576,-0.117 -0.576,-0.704 0,-0.587 0.229,-0.633 0.576,-0.704 z"
             inkscape:connector-curvature="0"
             style="stroke-width:8.53334141" />
          <path
             id="path28"
             d="m 498.437,300.609 -21.027,-4.263 c -17.753,-3.599 -31.551,-17.397 -35.15,-35.151 l -4.263,-21.027 c -1.619,-7.986 -8.44,-13.563 -16.589,-13.563 -8.148,0 -14.969,5.577 -16.589,13.563 l -4.263,21.027 c -3.599,17.754 -17.397,31.552 -35.151,35.151 l -21.026,4.263 c -7.985,1.618 -13.563,8.44 -13.563,16.588 0,8.148 5.577,14.969 13.563,16.588 l 21.026,4.263 c 17.754,3.599 31.552,17.397 35.151,35.151 l 4.263,21.027 c 1.62,7.986 8.44,13.563 16.589,13.563 8.148,0 14.969,-5.577 16.589,-13.563 l 4.263,-21.027 c 3.599,-17.754 17.397,-31.552 35.15,-35.151 l 21.027,-4.263 c 7.986,-1.618 13.563,-8.44 13.563,-16.588 0,-8.148 -5.578,-14.97 -13.563,-16.588 z m -3.034,18.211 -21.027,4.263 c -23.779,4.821 -42.261,23.302 -47.081,47.081 l -4.263,21.027 c -0.08,0.397 -0.27,1.328 -1.625,1.328 -1.355,0 -1.544,-0.931 -1.625,-1.328 l -4.263,-21.027 c -4.821,-23.779 -23.302,-42.261 -47.082,-47.081 l -21.026,-4.263 c -0.398,-0.08 -1.328,-0.27 -1.328,-1.624 0,-1.354 0.93,-1.543 1.328,-1.624 l 21.026,-4.263 c 23.78,-4.821 42.262,-23.302 47.082,-47.081 l 4.263,-21.027 c 0.08,-0.397 0.27,-1.328 1.625,-1.328 1.355,0 1.544,0.931 1.625,1.328 l 4.263,21.027 c 4.821,23.78 23.302,42.261 47.081,47.081 l 21.027,4.263 c 0.398,0.08 1.328,0.269 1.328,1.624 0,1.355 -0.931,1.544 -1.328,1.624 z"
             inkscape:connector-curvature="0"
             style="stroke-width:8.53334141" />
          <g
             id="g70"
             style="stroke-width:8.53334141">
            <path
               d="m 343.235,228.442 c 0.277,-2.325 -0.527,-4.648 -2.182,-6.303 L 334.721,215.807 504.1,38.466 c 7.463,-7.814 7.319,-20.389 -0.322,-28.029 -7.739,-7.738 -20.025,-7.906 -27.971,-0.378 l -260.89,247.173 -7.021,-7.021 c -1.823,-1.823 -4.441,-2.603 -6.965,-2.073 -2.522,0.529 -4.608,2.294 -5.546,4.696 -0.131,0.337 -13.3,33.776 -29.896,50.451 l -13.184,12.259 -3.431,-3.431 c -1.535,-1.535 -3.654,-2.341 -5.817,-2.225 -2.167,0.119 -4.182,1.155 -5.538,2.849 -39.745,49.608 -85.05,94.914 -134.659,134.658 -1.694,1.357 -2.73,3.371 -2.849,5.538 -0.119,2.167 0.69,4.283 2.225,5.817 l 50.384,50.384 c 1.435,1.436 3.378,2.236 5.398,2.236 0.139,0 0.28,-0.004 0.42,-0.011 2.167,-0.119 4.182,-1.155 5.538,-2.849 39.744,-49.609 85.05,-94.915 134.658,-134.658 1.694,-1.357 2.73,-3.371 2.849,-5.538 0.119,-2.167 -0.69,-4.283 -2.225,-5.817 l -0.553,-0.553 73.285,-78.817 c 16.575,-17.826 67.131,-48.76 67.64,-49.07 1.999,-1.221 3.328,-3.29 3.605,-5.615 z M 76.55,469.74 56.931,450.12 c -2.981,-2.981 -7.816,-2.981 -10.796,0 -2.981,2.981 -2.981,7.816 0,10.796 l 20.434,20.434 c -3.076,3.642 -6.134,7.298 -9.149,10.989 L 19.032,453.951 C 58.126,422.003 94.505,386.636 127.588,348.472 l 21.975,21.975 c 1.49,1.49 3.445,2.236 5.398,2.236 1.953,0 3.908,-0.745 5.398,-2.236 2.981,-2.981 2.981,-7.816 0,-10.796 l -22.832,-22.832 c 2.198,-2.626 4.384,-5.263 6.551,-7.914 l 38.388,38.388 c -38.058,31.1 -73.541,65.442 -105.916,102.447 z m 184.26,-197.012 -72.908,78.41 -24.792,-24.792 12.881,-11.977 c 0.068,-0.063 0.134,-0.127 0.2,-0.192 12.712,-12.712 23.19,-32.916 28.859,-45.221 l 4.326,4.326 9.043,9.043 c 1.49,1.49 3.445,2.236 5.398,2.236 1.953,0 3.908,-0.745 5.398,-2.236 2.981,-2.981 2.981,-7.816 0,-10.796 l -3.498,-3.498 260.591,-246.888 c 1.895,-1.796 4.825,-1.756 6.673,0.091 1.823,1.823 1.857,4.822 0.076,6.687 l -169.136,177.086 -3.914,-3.914 c -2.98,-2.982 -7.814,-2.981 -10.796,0 -2.981,2.981 -2.981,7.815 10e-4,10.796 l 9.427,9.427 c 0.003,0.003 0.006,0.007 0.009,0.01 l 4.818,4.818 C 307.915,236 274.669,257.823 260.81,272.728 Z"
               id="path30"
               inkscape:connector-curvature="0"
               style="stroke-width:8.53334141" />
          </g>
        </g>
        <g
           style="stroke-width:1.66666663"
           id="g32"
           transform="translate(0,-410.99899)">
</g>
        <g
           style="stroke-width:1.66666663"
           id="g34"
           transform="translate(0,-410.99899)">
</g>
        <g
           style="stroke-width:1.66666663"
           id="g36"
           transform="translate(0,-410.99899)">
</g>
        <g
           style="stroke-width:1.66666663"
           id="g38"
           transform="translate(0,-410.99899)">
</g>
        <g
           style="stroke-width:1.66666663"
           id="g40"
           transform="translate(0,-410.99899)">
</g>
        <g
           style="stroke-width:1.66666663"
           id="g42"
           transform="translate(0,-410.99899)">
</g>
        <g
           style="stroke-width:1.66666663"
           id="g44"
           transform="translate(0,-410.99899)">
</g>
        <g
           style="stroke-width:1.66666663"
           id="g46"
           transform="translate(0,-410.99899)">
</g>
        <g
           style="stroke-width:1.66666663"
           id="g48"
           transform="translate(0,-410.99899)">
</g>
        <g
           style="stroke-width:1.66666663"
           id="g50"
           transform="translate(0,-410.99899)">
</g>
        <g
           style="stroke-width:1.66666663"
           id="g52"
           transform="translate(0,-410.99899)">
</g>
        <g
           style="stroke-width:1.66666663"
           id="g54"
           transform="translate(0,-410.99899)">
</g>
        <g
           style="stroke-width:1.66666663"
           id="g56"
           transform="translate(0,-410.99899)">
</g>
        <g
           style="stroke-width:1.66666663"
           id="g58"
           transform="translate(0,-410.99899)">
</g>
        <g
           style="stroke-width:1.66666663"
           id="g60"
           transform="translate(0,-410.99899)">
</g>
      </g>
      <g
         style="stroke-width:8.26666641"
         transform="matrix(0.21643285,-0.13681229,0.13681229,0.21643285,-56.921366,193.54257)"
         id="g212">
        <g
           style="stroke-width:8.26666641"
           id="g82">
          <circle
             style="fill:#c7e2fc;stroke-width:8.26666641"
             cx="47"
             cy="36"
             r="3"
             id="circle80" />
        </g>
        <g
           style="stroke-width:8.26666641"
           id="g86">
          <circle
             style="fill:#a1cdfb;stroke-width:8.26666641"
             cx="58"
             cy="35"
             r="4"
             id="circle84" />
        </g>
        <g
           style="stroke-width:8.26666641"
           id="g90">
          <circle
             style="fill:#ebf7fe;stroke-width:8.26666641"
             cx="52"
             cy="34"
             r="4"
             id="circle88" />
        </g>
        <g
           style="stroke-width:8.26666641"
           id="g94">
          <path
             style="fill:#c7e2fc;stroke-width:8.26666641"
             inkscape:connector-curvature="0"
             d="m 52,42 v 8 l -5.613,8.42 C 46.135,58.798 46,59.243 46,59.697 46,60.969 47.031,62 48.303,62 H 59.697 C 60.969,62 62,60.969 62,59.697 62,59.242 61.865,58.798 61.613,58.42 L 56,50 v -8"
             id="path92" />
        </g>
        <g
           style="stroke-width:8.26666641"
           id="g98">
          <path
             style="fill:#f5b953;stroke-width:8.26666641"
             inkscape:connector-curvature="0"
             d="M 54.675,56.07 54.324,55.93 C 52.789,55.316 51.15,55 49.496,55 h -0.83 l -2.28,3.42 C 46.135,58.798 46,59.243 46,59.697 46,60.969 47.031,62 48.303,62 H 59.697 C 60.969,62 62,60.969 62,59.697 62,59.242 61.865,58.798 61.613,58.42 L 60.667,57 h -1.163 c -1.654,0 -3.293,-0.316 -4.829,-0.93 z"
             id="path96" />
        </g>
        <g
           style="stroke-width:8.26666641"
           id="g102">
          <path
             style="fill:#976947;stroke-width:8.26666641"
             inkscape:connector-curvature="0"
             d="M 39,41 V 20 C 39,9.611 31.389,2 22,2 12.611,2 5,9.611 5,19 v 22"
             id="path100" />
        </g>
        <g
           style="stroke-width:8.26666641"
           id="g106">
          <path
             style="fill:#ebf7fe;stroke-width:8.26666641"
             inkscape:connector-curvature="0"
             d="M 15,38 6.235,40.697 C 3.718,41.471 2,43.797 2,46.431 V 62 H 42 V 46.431 c 0,-2.634 -1.718,-4.96 -4.235,-5.735 L 29,38"
             id="path104" />
        </g>
        <g
           style="stroke-width:8.26666641"
           id="g110">
          <path
             style="fill:#c7e2fc;stroke-width:8.26666641"
             inkscape:connector-curvature="0"
             d="m 33,39 v 7 l -5,1 2,2 -8,13 -8,-13 2,-2 -5,-1 v -7"
             id="path108" />
        </g>
        <g
           style="stroke-width:8.26666641"
           id="g114">
          <path
             style="fill:#59ac98;stroke-width:8.26666641"
             inkscape:connector-curvature="0"
             d="m 15,38 7,17 7,-17"
             id="path112" />
        </g>
        <g
           style="stroke-width:8.26666641"
           id="g118">
          <path
             style="fill:#efbe9a;stroke-width:8.26666641"
             inkscape:connector-curvature="0"
             d="m 21,12 v 1 c 0,4.418 3.582,8 8,8 h 6 v 6 C 35,34.18 29.18,40 22,40 14.82,40 9,34.18 9,27 v -6 h 3 c 4.971,0 9,-4.029 9,-9 z"
             id="path116" />
        </g>
        <g
           style="stroke-width:8.26666641"
           id="g122">
          <path
             style="fill:#db9b7c;stroke-width:8.26666641"
             inkscape:connector-curvature="0"
             d="m 35,21 c 2.209,0 4,1.791 4,4 0,2.209 -1.791,4 -4,4"
             id="path120" />
        </g>
        <g
           style="stroke-width:8.26666641"
           id="g126">
          <path
             style="fill:#db9b7c;stroke-width:8.26666641"
             inkscape:connector-curvature="0"
             d="m 9,21 c -2.209,0 -4,1.791 -4,4 0,2.209 1.791,4 4,4"
             id="path124" />
        </g>
        <g
           style="stroke-width:8.26666641"
           id="g130">
          <path
             style="fill:#c7e2fc;stroke-width:8.26666641"
             inkscape:connector-curvature="0"
             d="m 9,25 c 2.596,1.947 5.754,3 9,3 0.64,0 1.254,-0.254 1.707,-0.707 l 0.586,-0.586 C 20.746,26.254 21.36,26 22,26 c 0.64,0 1.254,0.254 1.707,0.707 l 0.586,0.586 C 24.746,27.746 25.36,28 26,28 c 3.246,0 6.404,-1.053 9,-3 V 20 H 9 Z"
             id="path128" />
        </g>
        <g
           style="stroke-width:8.26666641"
           id="g134">
          <path
             style="stroke-width:8.26666641"
             inkscape:connector-curvature="0"
             d="m 8,50 h 2 V 62 H 8 Z"
             id="path132" />
        </g>
        <g
           style="stroke-width:8.26666641"
           id="g138">
          <path
             style="stroke-width:8.26666641"
             inkscape:connector-curvature="0"
             d="m 34,50 h 2 v 12 h -2 z"
             id="path136" />
        </g>
        <g
           style="stroke-width:8.26666641"
           id="g142">
          <path
             style="stroke-width:8.26666641"
             inkscape:connector-curvature="0"
             d="M 42,63 H 2 C 1.448,63 1,62.553 1,62 V 46.432 C 1,43.34 2.986,40.651 5.941,39.741 l 8.765,-2.696 0.588,1.912 -8.765,2.696 C 4.418,42.302 3,44.223 3,46.432 V 61 H 41 V 46.432 c 0,-2.209 -1.418,-4.13 -3.53,-4.779 l -8.764,-2.696 0.588,-1.912 8.765,2.696 C 41.014,40.65 43,43.34 43,46.432 V 62 c 0,0.553 -0.448,1 -1,1 z"
             id="path140" />
        </g>
        <g
           style="stroke-width:8.26666641"
           id="g146">
          <path
             style="stroke-width:8.26666641"
             inkscape:connector-curvature="0"
             d="M 22,41 C 14.28,41 8,34.72 8,27 v -6 h 2 v 6 c 0,6.617 5.383,12 12,12 6.617,0 12,-5.383 12,-12 v -6 h 2 v 6 c 0,7.72 -6.28,14 -14,14 z"
             id="path144" />
        </g>
        <g
           style="stroke-width:8.26666641"
           id="g150">
          <path
             style="stroke-width:8.26666641"
             inkscape:connector-curvature="0"
             d="m 22,56 c -0.405,0 -0.771,-0.244 -0.925,-0.619 l -7,-17 1.85,-0.762 6.075,14.755 6.075,-14.755 1.85,0.762 -7,17 C 22.771,55.756 22.405,56 22,56 Z"
             id="path148" />
        </g>
        <g
           style="stroke-width:8.26666641"
           id="g154">
          <path
             style="stroke-width:8.26666641"
             inkscape:connector-curvature="0"
             d="m 22,63 c -0.347,0 -0.669,-0.18 -0.852,-0.476 l -8,-13 C 12.905,49.129 12.965,48.62 13.293,48.293 L 13.972,47.614 10.804,46.98 C 10.336,46.887 10,46.477 10,46 v -7 h 2 v 6.181 l 4.196,0.839 c 0.361,0.072 0.654,0.338 0.761,0.69 0.107,0.354 0.011,0.736 -0.25,0.997 L 15.266,49.148 22,60.092 28.734,49.149 27.293,47.708 c -0.261,-0.261 -0.357,-0.644 -0.25,-0.997 0.107,-0.353 0.399,-0.618 0.761,-0.69 L 32,45.181 V 39 h 2 v 7 c 0,0.477 -0.336,0.887 -0.804,0.98 l -3.168,0.634 0.679,0.679 c 0.328,0.327 0.387,0.837 0.145,1.231 l -8,13 C 22.669,62.82 22.347,63 22,63 Z"
             id="path152" />
        </g>
        <g
           style="stroke-width:8.26666641"
           id="g158">
          <path
             style="stroke-width:8.26666641"
             inkscape:connector-curvature="0"
             d="M 40,41 H 38 V 20 C 38,10.309 31.122,3 22,3 13.178,3 6,10.178 6,19 V 41 H 4 V 19 C 4,9.075 12.075,1 22,1 32.093,1 40,9.346 40,20 Z"
             id="path156" />
        </g>
        <g
           style="stroke-width:8.26666641"
           id="g162">
          <path
             style="stroke-width:8.26666641"
             inkscape:connector-curvature="0"
             d="m 22,36 c -2.214,0 -4.269,-1.1 -5.496,-2.941 l -0.336,-0.504 1.664,-1.109 0.336,0.504 C 19.024,33.233 20.457,34 22,34 c 1.543,0 2.976,-0.767 3.832,-2.051 l 0.336,-0.504 1.664,1.109 -0.336,0.504 C 26.269,34.9 24.214,36 22,36 Z"
             id="path160" />
        </g>
        <g
           style="stroke-width:8.26666641"
           id="g166">
          <path
             style="stroke-width:8.26666641"
             inkscape:connector-curvature="0"
             d="M 9,30 C 6.243,30 4,27.757 4,25 4,22.243 6.243,20 9,20 h 3 c 4.411,0 8,-3.589 8,-8 h 2 c 0,5.514 -4.486,10 -10,10 H 9 c -1.654,0 -3,1.346 -3,3 0,1.654 1.346,3 3,3 z"
             id="path164" />
        </g>
        <g
           style="stroke-width:8.26666641"
           id="g170">
          <path
             style="stroke-width:8.26666641"
             inkscape:connector-curvature="0"
             d="M 16.5,25 C 15.673,25 15,24.327 15,23.5 15,22.673 15.673,22 16.5,22 c 0.827,0 1.5,0.673 1.5,1.5 0,0.827 -0.673,1.5 -1.5,1.5 z"
             id="path168" />
        </g>
        <g
           style="stroke-width:8.26666641"
           id="g174">
          <path
             style="stroke-width:8.26666641"
             inkscape:connector-curvature="0"
             d="M 27.5,25 C 26.673,25 26,24.327 26,23.5 26,22.673 26.673,22 27.5,22 c 0.827,0 1.5,0.673 1.5,1.5 0,0.827 -0.673,1.5 -1.5,1.5 z"
             id="path172" />
        </g>
        <g
           style="stroke-width:8.26666641"
           id="g178">
          <path
             style="stroke-width:8.26666641"
             inkscape:connector-curvature="0"
             d="m 16,19 h 9 v 2 h -9 z"
             id="path176" />
        </g>
        <g
           style="stroke-width:8.26666641"
           id="g182">
          <path
             style="stroke-width:8.26666641"
             inkscape:connector-curvature="0"
             d="m 26,29 c -0.913,0 -1.77,-0.355 -2.415,-1 L 23,27.414 c -0.534,-0.535 -1.466,-0.535 -2,0 L 20.414,28 C 19.77,28.645 18.913,29 18,29 14.561,29 11.152,27.863 8.4,25.8 l 1.2,-1.6 c 2.408,1.806 5.391,2.8 8.4,2.8 0.378,0 0.733,-0.146 1,-0.414 L 19.586,26 c 1.288,-1.289 3.54,-1.289 4.829,0 L 25,26.586 c 0.267,0.268 0.622,0.414 1,0.414 3.009,0 5.992,-0.994 8.4,-2.8 l 1.2,1.6 C 32.848,27.863 29.439,29 26,29 Z"
             id="path180" />
        </g>
        <g
           style="stroke-width:8.26666641"
           id="g186">
          <path
             style="stroke-width:8.26666641"
             inkscape:connector-curvature="0"
             d="M 59.697,63 H 48.303 C 46.481,63 45,61.519 45,59.697 c 0,-0.654 0.192,-1.288 0.555,-1.832 L 51,49.697 V 42 h 2 v 8 c 0,0.197 -0.059,0.391 -0.168,0.555 l -5.613,8.42 C 47.076,59.189 47,59.439 47,59.697 47,60.416 47.584,61 48.303,61 H 59.698 C 60.416,61 61,60.416 61,59.697 61,59.439 60.924,59.189 60.781,58.974 l -5.613,-8.42 C 55.059,50.391 55,50.197 55,50 v -8 h 2 v 7.697 l 5.445,8.168 C 62.808,58.409 63,59.043 63,59.697 63,61.519 61.519,63 59.697,63 Z"
             id="path184" />
        </g>
        <g
           style="stroke-width:8.26666641"
           id="g190">
          <path
             style="stroke-width:8.26666641"
             inkscape:connector-curvature="0"
             d="m 49,41 h 10 v 2 H 49 Z"
             id="path188" />
        </g>
        <g
           style="stroke-width:8.26666641"
           id="g194">
          <path
             style="stroke-width:8.26666641"
             inkscape:connector-curvature="0"
             d="m 61,58 h -1.497 c -1.789,0 -3.539,-0.337 -5.2,-1.001 L 53.952,56.857 C 52.53,56.289 51.03,56 49.497,56 H 49 v -2 h 0.497 c 1.789,0 3.539,0.337 5.2,1.001 l 0.351,0.142 C 56.47,55.711 57.97,56 59.503,56 H 61 Z"
             id="path192" />
        </g>
        <g
           style="stroke-width:8.26666641"
           id="g198">
          <path
             style="stroke-width:8.26666641"
             inkscape:connector-curvature="0"
             d="m 47,40 c -2.206,0 -4,-1.794 -4,-4 0,-2.206 1.794,-4 4,-4 0.456,0 0.905,0.077 1.333,0.228 l -0.666,1.887 C 47.453,34.038 47.229,34 47,34 c -1.103,0 -2,0.897 -2,2 0,1.103 0.897,2 2,2 1.103,0 2,-0.897 2,-2 h 2 c 0,2.206 -1.794,4 -4,4 z"
             id="path196" />
        </g>
        <g
           style="stroke-width:8.26666641"
           id="g202">
          <path
             style="stroke-width:8.26666641"
             inkscape:connector-curvature="0"
             d="M 47.157,35.249 C 47.053,34.842 47,34.422 47,34 c 0,-2.757 2.243,-5 5,-5 2.757,0 5,2.243 5,5 h -2 c 0,-1.654 -1.346,-3 -3,-3 -1.654,0 -3,1.346 -3,3 0,0.254 0.032,0.507 0.095,0.751 z"
             id="path200" />
        </g>
        <g
           style="stroke-width:8.26666641"
           id="g206">
          <path
             style="stroke-width:8.26666641"
             inkscape:connector-curvature="0"
             d="m 58,40 c -2.283,0 -4.274,-1.542 -4.842,-3.751 l 1.937,-0.498 C 55.435,37.075 56.63,38 58,38 c 1.654,0 3,-1.346 3,-3 0,-1.654 -1.346,-3 -3,-3 -0.731,0 -1.436,0.267 -1.984,0.75 l -1.323,-1.5 C 55.606,30.444 56.781,30 58,30 c 2.757,0 5,2.243 5,5 0,2.757 -2.243,5 -5,5 z"
             id="path204" />
        </g>
        <g
           style="stroke-width:8.26666641"
           id="g210">
          <path
             style="stroke-width:8.26666641"
             inkscape:connector-curvature="0"
             d="m 35,30 v -2 c 1.654,0 3,-1.346 3,-3 0,-1.654 -1.346,-3 -3,-3 h -6 c -4.962,0 -9,-4.037 -9,-9 v -1 h 2 v 1 c 0,3.859 3.14,7 7,7 h 6 c 2.757,0 5,2.243 5,5 0,2.757 -2.243,5 -5,5 z"
             id="path208" />
        </g>
      </g>
      <g
         style="stroke-width:8.26666641"
         transform="matrix(0.24855748,-0.06148136,0.06148136,0.24855748,-61.084777,155.0656)"
         id="g356">
        <g
           style="stroke-width:8.26666641"
           id="g324">
          <g
             style="stroke-width:8.26666641"
             id="g290">
            <path
               style="fill:#b4dd7f;stroke-width:8.26666641"
               inkscape:connector-curvature="0"
               d="M 32,2 H 62 V 8 H 32 Z"
               id="path288" />
          </g>
          <g
             style="stroke-width:8.26666641"
             id="g294">
            <path
               style="fill:#969faa;stroke-width:8.26666641"
               inkscape:connector-curvature="0"
               d="M 33.64,42.64 47,56 c 0,1.66 -0.67,3.16 -1.76,4.24 C 44.16,61.33 42.66,62 41,62 L 27.64,48.64 c 2.47,-1.46 4.54,-3.53 6,-6 z"
               id="path292" />
          </g>
          <g
             style="stroke-width:8.26666641"
             id="g298">
            <circle
               style="fill:#e6e9ed;stroke-width:8.26666641"
               cx="19"
               cy="34"
               r="17"
               id="circle296" />
          </g>
          <g
             style="stroke-width:8.26666641"
             id="g302">
            <circle
               style="fill:#69d6f4;stroke-width:8.26666641"
               cx="19"
               cy="34"
               r="13"
               id="circle300" />
          </g>
          <g
             style="stroke-width:8.26666641"
             id="g306">
            <path
               style="fill:#b27946;stroke-width:8.26666641"
               inkscape:connector-curvature="0"
               d="M 21.36,3 C 22.07,2.38 22.99,2 24,2 c 2.21,0 4,1.79 4,4 0,2.21 -1.79,4 -4,4 h -2 -5 c -1.1,0 -2,0.9 -2,2 v 2 c -0.55,0 -1.05,0.22 -1.41,0.59 C 13.22,14.95 13,15.45 13,16 v 0.17 c 0,0.53 0.21,1.04 0.59,1.42 l 0.82,0.82 C 14.79,18.79 15,19.3 15,19.83 V 25 L 12.21,22.91 11.27,22.2 C 10.46,21.6 9.76,20.9 9.18,20.12 8.77,19.59 8.42,19.03 8.13,18.44 7.4,16.98 7,15.34 7,13.67 7,7.78 11.78,3 17.67,3 Z"
               id="path304" />
          </g>
          <g
             style="stroke-width:8.26666641"
             id="g310">
            <path
               style="fill:#ff826e;stroke-width:8.26666641"
               inkscape:connector-curvature="0"
               d="m 16,46.65 c -2.3,-0.54 -4.36,-1.7 -6,-3.27 V 43.37 32.39 c 0,-1.63 0.5,-3.17 1.37,-4.46 C 12.24,26.64 13.49,25.6 15,25 l 4,4 2,-2 c 1.51,0.6 2.76,1.64 3.63,2.93 0.87,1.29 1.37,2.83 1.37,4.46 V 44.95 C 23.98,46.25 21.58,47 19,47 17.97,47 16.96,46.88 16,46.65 Z"
               id="path308" />
          </g>
          <g
             style="stroke-width:8.26666641"
             id="g314">
            <path
               style="fill:#f0d0b4;stroke-width:8.26666641"
               inkscape:connector-curvature="0"
               d="M 19,29 15,25 V 19.83 C 15,19.3 14.79,18.79 14.41,18.41 L 13.59,17.59 C 13.21,17.21 13,16.7 13,16.17 V 16 c 0,-0.55 0.22,-1.05 0.59,-1.41 C 13.95,14.22 14.45,14 15,14 v -2 c 0,-1.1 0.9,-2 2,-2 h 5 2 c 0,0 3,4 3,9 l -3,1 v 0.59 c 0,0.45 -0.09,0.89 -0.26,1.3 -0.17,0.41 -0.42,0.79 -0.74,1.11 -0.54,0.54 -1.25,0.88 -2,0.97 V 27 Z"
               id="path312" />
          </g>
          <g
             style="stroke-width:8.26666641"
             id="g318">
            <path
               style="fill:#fcd770;stroke-width:8.26666641"
               inkscape:connector-curvature="0"
               d="M 48,40 H 60 V 52 H 48 Z"
               id="path316" />
          </g>
          <g
             style="stroke-width:8.26666641"
             id="g322">
            <path
               style="fill:#fcd770;stroke-width:8.26666641"
               inkscape:connector-curvature="0"
               d="M 48,24 H 60 V 36 H 48 Z"
               id="path320" />
          </g>
        </g>
        <g
           style="stroke-width:8.26666641"
           id="g354">
          <circle
             style="stroke-width:8.26666641"
             cx="22"
             cy="14"
             r="1"
             id="circle326" />
          <path
             style="stroke-width:8.26666641"
             inkscape:connector-curvature="0"
             d="M 37,34 C 37,27.538 33.554,21.622 27.979,18.408 27.835,15.082 26.531,12.262 25.634,10.703 27.587,10.022 29,8.182 29,6 29,3.243 26.757,1 24,1 22.884,1 21.864,1.38 21.031,2 H 17.667 C 11.233,2 6,7.233 6,13.667 6,15.891 6.654,18.05 7.82,19.897 3.534,23.3 1,28.5 1,34 c 0,9.925 8.075,18 18,18 3.058,0 5.938,-0.771 8.463,-2.123 L 40.586,63 H 41 c 3.859,0 7,-3.14 7,-7 V 55.586 L 34.877,42.463 C 36.229,39.938 37,37.058 37,34 Z M 15,32.618 V 45.3 C 13.508,44.77 12.154,43.956 10.999,42.918 L 11,32.385 c 0,-2.643 1.477,-4.993 3.796,-6.175 L 19,30.414 21.204,28.21 C 23.523,29.392 25,31.742 25,34.385 v 9.991 C 23.233,45.402 21.187,46 19,46 18.317,46 17.652,45.929 17,45.819 V 31.382 l -2.553,-1.276 -0.895,1.789 z m -2.807,-8.473 0.943,0.707 C 10.586,26.474 9,29.275 9,32.385 L 8.999,40.617 C 7.739,38.719 7,36.445 7,34 7,30.016 8.94,26.39 12.193,24.145 Z M 22,26.351 V 24.75 c 0.633,-0.214 1.22,-0.556 1.707,-1.042 0.169,-0.169 0.313,-0.354 0.451,-0.544 C 28.34,25.146 31,29.31 31,34 c 0,3.542 -1.552,6.72 -4,8.919 v -8.534 c 0,-3.451 -1.941,-6.535 -5,-8.034 z m 1,-7.072 v 1.307 c 0,0.645 -0.251,1.251 -0.707,1.707 C 21.837,22.749 21.23,23 20.586,23 H 18 v 2 h 2 v 1.586 l -1,1 -3,-3 v -4.757 c 0,-0.801 -0.313,-1.555 -0.879,-2.122 L 14.293,16.879 C 14.104,16.69 14,16.438 14,16.171 V 16 c 0,-0.551 0.448,-1 1,-1 h 1 v -3 c 0,-0.551 0.448,-1 1,-1 h 5 1.473 c 0.659,1.016 2.298,3.86 2.506,7.287 z M 17.667,4 h 1.757 C 19.154,4.614 19,5.288 19,6 h 2 c 0,-1.654 1.346,-3 3,-3 1.654,0 3,1.346 3,3 0,1.654 -1.346,3 -3,3 h -2 -5 c -1.654,0 -3,1.346 -3,3 v 1.171 C 12.836,13.584 12,14.696 12,16 v 0.171 c 0,0.801 0.313,1.555 0.879,2.122 l 0.828,0.828 C 13.896,19.31 14,19.562 14,19.829 v 3.172 l -2.134,-1.6 C 9.445,19.584 8,16.693 8,13.667 8,8.336 12.337,4 17.667,4 Z M 3,34 c 0,-4.877 2.241,-9.489 6.035,-12.516 0.451,0.5 0.941,0.968 1.48,1.386 C 7.04,25.511 5,29.572 5,34 c 0,7.72 6.28,14 14,14 7.72,0 14,-6.28 14,-14 0,-5.505 -3.143,-10.387 -8.076,-12.683 0.033,-0.197 0.068,-0.393 0.074,-0.596 l 1.896,-0.632 C 31.902,22.936 35,28.223 35,34 35,42.822 27.822,50 19,50 10.178,50 3,42.822 3,34 Z m 42.984,22.398 c -0.193,2.44 -2.146,4.393 -4.586,4.586 L 29.216,48.802 c 1.791,-1.24 3.346,-2.795 4.586,-4.586 z"
             id="path328" />
          <path
             style="stroke-width:8.26666641"
             inkscape:connector-curvature="0"
             d="M 47,53 H 61 V 39 H 47 Z M 49,41 H 59 V 51 H 49 Z"
             id="path330" />
          <path
             style="stroke-width:8.26666641"
             inkscape:connector-curvature="0"
             d="M 53,46.586 51.707,45.293 50.293,46.707 53,49.414 58.707,43.707 57.293,42.293 Z"
             id="path332" />
          <path
             style="stroke-width:8.26666641"
             inkscape:connector-curvature="0"
             d="M 47,37 H 61 V 23 H 47 Z M 49,25 H 59 V 35 H 49 Z"
             id="path334" />
          <path
             style="stroke-width:8.26666641"
             inkscape:connector-curvature="0"
             d="M 53,30.586 51.707,29.293 50.293,30.707 53,33.414 58.707,27.707 57.293,26.293 Z"
             id="path336" />
          <path
             style="stroke-width:8.26666641"
             inkscape:connector-curvature="0"
             d="M 31,1 V 9 H 63 V 1 Z m 14,2 h 4 V 7 H 45 Z M 43,7 H 39 V 3 h 4 z m 8,-4 h 4 V 7 H 51 Z M 33,3 h 4 V 7 H 33 Z M 61,7 H 57 V 3 h 4 z"
             id="path338" />
          <path
             style="stroke-width:8.26666641"
             inkscape:connector-curvature="0"
             d="m 37,11 h 18 v 2 H 37 Z"
             id="path340" />
          <path
             style="stroke-width:8.26666641"
             inkscape:connector-curvature="0"
             d="m 37,15 h 18 v 2 H 37 Z"
             id="path342" />
          <path
             style="stroke-width:8.26666641"
             inkscape:connector-curvature="0"
             d="m 37,19 h 2 v 2 h -2 z"
             id="path344" />
          <path
             style="stroke-width:8.26666641"
             inkscape:connector-curvature="0"
             d="m 53,19 h 2 v 2 h -2 z"
             id="path346" />
          <path
             style="stroke-width:8.26666641"
             inkscape:connector-curvature="0"
             d="m 49,19 h 2 v 2 h -2 z"
             id="path348" />
          <path
             style="stroke-width:8.26666641"
             inkscape:connector-curvature="0"
             d="m 45,19 h 2 v 2 h -2 z"
             id="path350" />
          <path
             style="stroke-width:8.26666641"
             inkscape:connector-curvature="0"
             d="m 41,19 h 2 v 2 h -2 z"
             id="path352" />
        </g>
      </g>
      <g
         style="stroke-width:8.26666641"
         transform="matrix(0.25201086,0.04529135,-0.04529135,0.25201086,-213.51058,152.77539)"
         id="g512">
        <g
           style="stroke-width:8.26666641"
           id="g452">
          <g
             style="stroke-width:8.26666641"
             id="g402">
            <path
               style="fill:#ffeaa7;stroke-width:8.26666641"
               inkscape:connector-curvature="0"
               d="M 13,46 H 51 V 62 H 13 Z"
               id="path400" />
          </g>
          <g
             style="stroke-width:8.26666641"
             id="g406">
            <path
               style="fill:#fcd770;stroke-width:8.26666641"
               inkscape:connector-curvature="0"
               d="m 44,29.2 c 0,0.53 -0.04,1.06 -0.13,1.58 L 43.84,30.98 42,42 H 22 L 20.16,30.98 20.13,30.78 C 20.04,30.26 20,29.73 20,29.2 c 0,-2.06 0.66,-4.06 1.88,-5.71 0.02,-0.02 0.03,-0.04 0.04,-0.05 L 23,22 h 2 14 2 l 1.08,1.44 c 0.01,0.02 0.02,0.03 0.04,0.05 1.22,1.65 1.88,3.65 1.88,5.71 z"
               id="path404" />
          </g>
          <g
             style="stroke-width:8.26666641"
             id="g410">
            <path
               style="fill:#e6e9ed;stroke-width:8.26666641"
               inkscape:connector-curvature="0"
               d="M 58,14.46 V 19 C 58,24.52 53.52,29 48,29 47.83,29 47.66,28.97 47.5,28.93 47.82,28.36 48,27.7 48,27 48,26.31 47.82,25.66 47.51,25.09 47.7,25.03 47.91,25 48.11,25 51.36,25 54,22.36 54,19.11 v -4.65 c 0.59,0.34 1.27,0.54 2,0.54 0.73,0 1.41,-0.2 2,-0.54 z"
               id="path408" />
          </g>
          <g
             style="stroke-width:8.26666641"
             id="g414">
            <path
               style="fill:#e6e9ed;stroke-width:8.26666641"
               inkscape:connector-curvature="0"
               d="m 22.11,45.34 c 0.32,0.21 0.55,0.49 0.7,0.82 -0.47,0.2 -0.9,0.49 -1.28,0.87 -0.55,0.54 -0.91,1.2 -1.07,1.9 -0.2,-0.06 -0.39,-0.15 -0.57,-0.27 C 19.66,48.5 18.81,47.48 17.79,45.99 17,44.87 16.12,43.47 15.33,42 14.05,39.62 13,37.02 13,35 c 0,-3 1.68,-5.82 3.02,-7.58 0.16,1.52 1.17,2.79 2.56,3.31 C 17.77,31.96 17,33.52 17,35 c 0,1.35 1.29,4.5 2.67,7 0.88,1.58 1.79,2.91 2.44,3.34 z"
               id="path412" />
          </g>
          <g
             style="stroke-width:8.26666641"
             id="g418">
            <path
               style="fill:#ccd1d9;stroke-width:8.26666641"
               inkscape:connector-curvature="0"
               d="M 47.5,28.93 C 46.82,30.17 45.51,31 44,31 43.94,31 43.89,30.99 43.84,30.98 l 0.03,-0.2 C 43.96,30.26 44,29.73 44,29.2 44,27.14 43.34,25.14 42.12,23.49 42.68,23.19 43.31,23 44,23 c 1.52,0 2.83,0.84 3.51,2.09 0.31,0.57 0.49,1.22 0.49,1.91 0,0.7 -0.18,1.36 -0.5,1.93 z"
               id="path416" />
          </g>
          <g
             style="stroke-width:8.26666641"
             id="g422">
            <path
               style="fill:#ccd1d9;stroke-width:8.26666641"
               inkscape:connector-curvature="0"
               d="m 20,29.2 c 0,0.53 0.04,1.06 0.13,1.58 l 0.03,0.2 C 20.11,30.99 20.06,31 20,31 c -0.5,0 -0.98,-0.09 -1.42,-0.27 -1.39,-0.52 -2.4,-1.79 -2.56,-3.31 0,-0.01 0,-0.01 0,-0.01 C 16.01,27.27 16,27.14 16,27 c 0,-2.21 1.79,-4 4,-4 0.69,0 1.32,0.19 1.88,0.49 C 20.66,25.14 20,27.14 20,29.2 Z"
               id="path420" />
          </g>
          <g
             style="stroke-width:8.26666641"
             id="g426">
            <path
               style="fill:#69d6f4;stroke-width:8.26666641"
               inkscape:connector-curvature="0"
               d="m 40,28 v 4 c 0,1.1 -0.9,2 -2,2 H 26 c -1.1,0 -2,-0.9 -2,-2 v -4 c 0,-1.1 0.9,-2 2,-2 h 12 c 1.1,0 2,0.9 2,2 z"
               id="path424" />
          </g>
          <g
             style="stroke-width:8.26666641"
             id="g430">
            <path
               style="fill:#e6e9ed;stroke-width:8.26666641"
               inkscape:connector-curvature="0"
               d="m 47,10 v 4 c 0,1.1 -0.9,2 -2,2 H 43 V 8 h 2 c 1.1,0 2,0.9 2,2 z"
               id="path428" />
          </g>
          <g
             style="stroke-width:8.26666641"
             id="g434">
            <path
               style="fill:#e6e9ed;stroke-width:8.26666641"
               inkscape:connector-curvature="0"
               d="m 43,16 v 2 c 0,2.21 -1.79,4 -4,4 H 25 c -2.21,0 -4,-1.79 -4,-4 V 16 8 6 c 0,-2.21 1.79,-4 4,-4 h 2 l 3,4 h 4 l 3,-4 h 2 c 2.21,0 4,1.79 4,4 v 2 z"
               id="path432" />
          </g>
          <g
             style="stroke-width:8.26666641"
             id="g438">
            <path
               style="fill:#e6e9ed;stroke-width:8.26666641"
               inkscape:connector-curvature="0"
               d="m 21,8 v 8 h -2 c -1.1,0 -2,-0.9 -2,-2 v -4 c 0,-1.1 0.9,-2 2,-2 z"
               id="path436" />
          </g>
          <g
             style="stroke-width:8.26666641"
             id="g442">
            <path
               style="fill:#b4dd7f;stroke-width:8.26666641"
               inkscape:connector-curvature="0"
               d="M 37,2 34,6 H 30 L 27,2 Z"
               id="path440" />
          </g>
          <g
             style="stroke-width:8.26666641"
             id="g446">
            <circle
               style="fill:#838f9b;stroke-width:8.26666641"
               cx="37"
               cy="10"
               r="2"
               id="circle444" />
          </g>
          <g
             style="stroke-width:8.26666641"
             id="g450">
            <circle
               style="fill:#838f9b;stroke-width:8.26666641"
               cx="27"
               cy="10"
               r="2"
               id="circle448" />
          </g>
        </g>
        <g
           style="stroke-width:8.26666641"
           id="g510">
          <path
             style="stroke-width:8.26666641"
             inkscape:connector-curvature="0"
             d="M 63,41 H 43.18 l 1.512,-9.07 c 1.34,-0.188 2.504,-0.9 3.285,-1.933 0.008,0 0.015,0.003 0.023,0.003 6.065,0 11,-4.935 11,-11 V 14.974 C 60.207,14.06 61,12.626 61,11 v -0.162 l -1.051,-3.154 -1.897,0.633 0.945,2.834 C 58.917,12.735 57.604,14 56,14 54.396,14 53.083,12.735 53.004,11.151 L 53.949,8.317 52.052,7.684 51,10.838 V 11 c 0,1.627 0.793,3.061 2,3.974 v 4.137 C 53,21.807 50.807,24 48.112,24 48.069,24 48.025,24.008 47.982,24.009 47.069,22.797 45.631,22 44,22 c -0.526,0 -1.044,0.096 -1.549,0.268 L 42.143,21.857 C 43.266,20.939 44,19.561 44,18 v -1 h 1 c 1.654,0 3,-1.346 3,-3 V 10 C 48,8.346 46.654,7 45,7 H 44 V 6 C 44,3.243 41.757,1 39,1 H 25 c -2.757,0 -5,2.243 -5,5 v 1 h -1 c -1.654,0 -3,1.346 -3,3 v 4 c 0,1.654 1.346,3 3,3 h 1 v 1 c 0,1.561 0.734,2.939 1.858,3.857 L 21.55,22.268 C 21.044,22.096 20.526,22 20,22 c -2.757,0 -5,2.243 -5,5 0,0.036 0.01,0.07 0.011,0.105 C 13.585,29.055 12,31.907 12,35 c 0,1.774 0.714,3.913 1.695,6 H 1 v 2 h 13.716 c 0.384,0.694 0.783,1.368 1.181,2 H 12 V 63 H 52 V 45 H 25.487 C 24.739,44.827 23.965,44.827 23.217,45.001 23.051,44.817 22.873,44.643 22.664,44.504 22.332,44.283 21.892,43.73 21.417,43 H 63 Z M 45,9 c 0.551,0 1,0.449 1,1 v 4 c 0,0.551 -0.449,1 -1,1 H 44 V 9 Z m -26,6 c -0.551,0 -1,-0.449 -1,-1 v -4 c 0,-0.551 0.449,-1 1,-1 h 1 v 6 z m 36,4.112 v -3.213 c 0.323,0.066 0.658,0.101 1,0.101 0.342,0 0.677,-0.035 1,-0.101 V 19 c 0,4.657 -3.557,8.499 -8.096,8.954 C 48.964,27.645 49,27.327 49,27 49,26.641 48.958,26.292 48.886,25.954 52.321,25.567 55,22.648 55,19.112 Z M 47,27 c 0,1.322 -0.864,2.433 -2.026,2.833 C 44.986,29.623 45,29.414 45,29.205 45,27.404 44.523,25.618 43.652,24.046 43.768,24.031 43.883,24 44,24 c 1.654,0 3,1.346 3,3 z M 35,3 33.5,5 h -3 L 29,3 Z M 22,6 c 0,-1.654 1.346,-3 3,-3 h 1.5 l 3,4 h 5 l 3,-4 H 39 c 1.654,0 3,1.346 3,3 v 12 c 0,1.654 -1.346,3 -3,3 H 25 c -1.654,0 -3,-1.346 -3,-3 z m 17,17 h 1.5 l 0.777,1.037 c 0.012,0.016 0.022,0.033 0.033,0.049 l 0.005,0.007 c 1.086,1.472 1.685,3.283 1.685,5.112 0,0.472 -0.04,0.948 -0.117,1.416 L 41.153,41 H 22.847 L 21.117,30.621 C 21.04,30.153 21,29.677 21,29.205 c 0,-1.587 0.452,-3.16 1.28,-4.51 L 22.731,24.026 23.5,23 H 25 Z m -19,1 c 0.117,0 0.232,0.031 0.349,0.046 C 19.477,25.618 19,27.403 19,29.205 c 0,0.206 0.014,0.413 0.026,0.619 C 17.851,29.417 17,28.311 17,27 c 0,-1.654 1.346,-3 3,-3 z m 6.366,23.628 1.336,2.673 L 29,49.652 V 51 h 2 v -2 h -1.712 l -1,-2 H 50 V 61 H 14 V 47 h 3.241 c 0.622,0.87 1.172,1.558 1.577,2 H 17 v 2 h 2 v -1.806 c 0.134,0.136 0.252,0.246 0.334,0.301 0.017,0.011 0.036,0.019 0.053,0.03 -0.091,1.388 0.372,2.806 1.43,3.865 l 0.115,0.115 2.974,1.487 0.895,-1.789 -2.673,-1.336 c -1.064,-1.176 -1.03,-3 0.104,-4.134 1.134,-1.135 2.958,-1.169 4.134,-0.105 z m -5.548,-1.31 c -0.318,0.318 -0.565,0.677 -0.78,1.05 C 18.46,45.464 14,38.942 14,35 c 0,-1.958 0.811,-3.855 1.748,-5.403 0.371,0.606 0.855,1.134 1.441,1.534 C 16.413,32.527 16,33.829 16,35 c 0,2.464 3.306,9.217 5.278,10.943 -0.156,0.122 -0.317,0.232 -0.46,0.375 z M 18,35 c 0,-0.868 0.374,-1.933 1.049,-3.096 0.084,0.016 0.174,0.014 0.259,0.026 L 20.82,41 H 20.258 C 19.077,38.756 18,36.097 18,35 Z"
             id="path454" />
          <path
             style="stroke-width:8.26666641"
             inkscape:connector-curvature="0"
             d="m 17,57 h 2 v 2 h -2 z"
             id="path456" />
          <path
             style="stroke-width:8.26666641"
             inkscape:connector-curvature="0"
             d="m 21,57 h 2 v 2 h -2 z"
             id="path458" />
          <path
             style="stroke-width:8.26666641"
             inkscape:connector-curvature="0"
             d="m 41,57 h 2 v 2 h -2 z"
             id="path460" />
          <path
             style="stroke-width:8.26666641"
             inkscape:connector-curvature="0"
             d="m 37,57 h 2 v 2 h -2 z"
             id="path462" />
          <path
             style="stroke-width:8.26666641"
             inkscape:connector-curvature="0"
             d="m 29,57 h 2 v 2 h -2 z"
             id="path464" />
          <path
             style="stroke-width:8.26666641"
             inkscape:connector-curvature="0"
             d="m 25,57 h 2 v 2 h -2 z"
             id="path466" />
          <path
             style="stroke-width:8.26666641"
             inkscape:connector-curvature="0"
             d="m 33,57 h 2 v 2 h -2 z"
             id="path468" />
          <path
             style="stroke-width:8.26666641"
             inkscape:connector-curvature="0"
             d="m 45,57 h 2 v 2 h -2 z"
             id="path470" />
          <path
             style="stroke-width:8.26666641"
             inkscape:connector-curvature="0"
             d="m 17,53 h 2 v 2 h -2 z"
             id="path472" />
          <path
             style="stroke-width:8.26666641"
             inkscape:connector-curvature="0"
             d="m 29,53 h 2 v 2 h -2 z"
             id="path474" />
          <path
             style="stroke-width:8.26666641"
             inkscape:connector-curvature="0"
             d="m 25,53 h 2 v 2 h -2 z"
             id="path476" />
          <path
             style="stroke-width:8.26666641"
             inkscape:connector-curvature="0"
             d="m 45,53 h 2 v 2 h -2 z"
             id="path478" />
          <path
             style="stroke-width:8.26666641"
             inkscape:connector-curvature="0"
             d="m 37,53 h 2 v 2 h -2 z"
             id="path480" />
          <path
             style="stroke-width:8.26666641"
             inkscape:connector-curvature="0"
             d="m 33,53 h 2 v 2 h -2 z"
             id="path482" />
          <path
             style="stroke-width:8.26666641"
             inkscape:connector-curvature="0"
             d="m 41,53 h 2 v 2 h -2 z"
             id="path484" />
          <path
             style="stroke-width:8.26666641"
             inkscape:connector-curvature="0"
             d="m 33,49 h 2 v 2 h -2 z"
             id="path486" />
          <path
             style="stroke-width:8.26666641"
             inkscape:connector-curvature="0"
             d="m 41,49 h 2 v 2 h -2 z"
             id="path488" />
          <path
             style="stroke-width:8.26666641"
             inkscape:connector-curvature="0"
             d="m 37,49 h 2 v 2 h -2 z"
             id="path490" />
          <path
             style="stroke-width:8.26666641"
             inkscape:connector-curvature="0"
             d="m 45,49 h 2 v 2 h -2 z"
             id="path492" />
          <path
             style="stroke-width:8.26666641"
             inkscape:connector-curvature="0"
             d="m 37,13 c 1.654,0 3,-1.346 3,-3 0,-1.654 -1.346,-3 -3,-3 -1.654,0 -3,1.346 -3,3 0,1.654 1.346,3 3,3 z m 0,-4 c 0.551,0 1,0.449 1,1 0,0.551 -0.449,1 -1,1 -0.551,0 -1,-0.449 -1,-1 0,-0.551 0.449,-1 1,-1 z"
             id="path494" />
          <path
             style="stroke-width:8.26666641"
             inkscape:connector-curvature="0"
             d="m 27,13 c 1.654,0 3,-1.346 3,-3 0,-1.654 -1.346,-3 -3,-3 -1.654,0 -3,1.346 -3,3 0,1.654 1.346,3 3,3 z m 0,-4 c 0.551,0 1,0.449 1,1 0,0.551 -0.449,1 -1,1 -0.551,0 -1,-0.449 -1,-1 0,-0.551 0.449,-1 1,-1 z"
             id="path496" />
          <path
             style="stroke-width:8.26666641"
             inkscape:connector-curvature="0"
             d="M 35.973,17 28,16.973 V 15 h -2 v 1.973 C 26,18.09 26.91,19 28.027,19 h 7.945 C 37.09,19 38,18.09 38,16.973 V 15 h -2 z"
             id="path498" />
          <path
             style="stroke-width:8.26666641"
             inkscape:connector-curvature="0"
             d="m 23,32 c 0,1.654 1.346,3 3,3 h 12 c 1.654,0 3,-1.346 3,-3 v -4 c 0,-1.654 -1.346,-3 -3,-3 H 26 c -1.654,0 -3,1.346 -3,3 z m 2,-4 c 0,-0.551 0.449,-1 1,-1 h 12 c 0.551,0 1,0.449 1,1 v 4 c 0,0.551 -0.449,1 -1,1 H 26 c -0.551,0 -1,-0.449 -1,-1 z"
             id="path500" />
          <path
             style="stroke-width:8.26666641"
             inkscape:connector-curvature="0"
             d="m 37,37 h 2 v 2 h -2 z"
             id="path502" />
          <path
             style="stroke-width:8.26666641"
             inkscape:connector-curvature="0"
             d="m 33,37 h 2 v 2 h -2 z"
             id="path504" />
          <path
             style="stroke-width:8.26666641"
             inkscape:connector-curvature="0"
             d="m 25,37 h 2 v 2 h -2 z"
             id="path506" />
          <path
             style="stroke-width:8.26666641"
             inkscape:connector-curvature="0"
             d="m 29,37 h 2 v 2 h -2 z"
             id="path508" />
        </g>
      </g>
      <g
         style="stroke-width:8.53334141"
         transform="matrix(0.03100583,0,0,0.03100583,-194.62158,193.74906)"
         id="g628">
        <g
           style="fill:#45d987;stroke-width:8.53334141"
           id="g590">
          <path
             style="stroke-width:8.53334141"
             inkscape:connector-curvature="0"
             d="m 229.902,387.616 c -4.143,0 -7.5,3.357 -7.5,7.5 v 57.436 c 0,4.143 3.357,7.5 7.5,7.5 4.143,0 7.5,-3.357 7.5,-7.5 v -57.436 c 0,-4.143 -3.357,-7.5 -7.5,-7.5 z"
             id="path578" />
          <path
             style="stroke-width:8.53334141"
             inkscape:connector-curvature="0"
             d="m 169.2,387.616 c -4.143,0 -7.5,3.357 -7.5,7.5 v 57.436 c 0,4.143 3.357,7.5 7.5,7.5 4.143,0 7.5,-3.357 7.5,-7.5 v -57.436 c 0,-4.143 -3.357,-7.5 -7.5,-7.5 z"
             id="path580" />
          <path
             style="stroke-width:8.53334141"
             inkscape:connector-curvature="0"
             d="m 199.552,391.224 c -4.143,0 -7.5,3.357 -7.5,7.5 v 90.16 c 0,4.143 3.357,7.5 7.5,7.5 4.143,0 7.5,-3.357 7.5,-7.5 v -90.16 c 0,-4.142 -3.358,-7.5 -7.5,-7.5 z"
             id="path582" />
          <path
             style="stroke-width:8.53334141"
             inkscape:connector-curvature="0"
             d="m 396.947,184.176 h 57.436 c 4.143,0 7.5,-3.357 7.5,-7.5 0,-4.143 -3.357,-7.5 -7.5,-7.5 h -57.436 c -4.143,0 -7.5,3.357 -7.5,7.5 0,4.143 3.357,7.5 7.5,7.5 z"
             id="path584" />
          <path
             style="stroke-width:8.53334141"
             inkscape:connector-curvature="0"
             d="m 454.382,229.878 h -57.436 c -4.143,0 -7.5,3.357 -7.5,7.5 0,4.143 3.357,7.5 7.5,7.5 h 57.436 c 4.143,0 7.5,-3.357 7.5,-7.5 0,-4.143 -3.357,-7.5 -7.5,-7.5 z"
             id="path586" />
          <path
             style="stroke-width:8.53334141"
             inkscape:connector-curvature="0"
             d="m 491.208,199.526 h -91.962 c -4.143,0 -7.5,3.357 -7.5,7.5 0,4.143 3.357,7.5 7.5,7.5 h 91.962 c 4.143,0 7.5,-3.357 7.5,-7.5 0,-4.143 -3.357,-7.5 -7.5,-7.5 z"
             id="path588" />
        </g>
        <path
           style="fill:#f78e36;stroke-width:8.53334141"
           inkscape:connector-curvature="0"
           d="M 466.483,510.19 363.043,406.75 c -2.414,-2.414 -2.414,-6.328 0,-8.741 l 34.966,-34.966 c 2.414,-2.414 6.328,-2.414 8.741,0 l 103.44,103.44 c 2.414,2.414 2.414,6.328 0,8.741 l -34.966,34.966 c -2.414,2.413 -6.327,2.413 -8.741,0 z"
           id="path592" />
        <path
           style="fill:#f86f1b;stroke-width:8.53334141"
           inkscape:connector-curvature="0"
           d="m 398.009,363.043 -21.853,21.853 c 2.414,-2.414 6.328,-2.414 8.741,0 l 103.44,103.44 c 2.414,2.414 2.414,6.328 0,8.741 l 21.853,-21.853 c 2.414,-2.414 2.414,-6.327 0,-8.741 L 406.75,363.043 c -2.414,-2.414 -6.328,-2.414 -8.741,0 z"
           id="path594" />
        <path
           style="fill:#4380a0;stroke-width:8.53334141"
           inkscape:connector-curvature="0"
           d="m 341.257,323.029 h 30.905 v 67.362 h -30.905 z"
           transform="matrix(0.707,-0.707,0.707,0.707,-147.754,356.71)"
           id="path596" />
        <path
           style="fill:#7be492;stroke-width:8.53334141"
           inkscape:connector-curvature="0"
           d="m 384.222,399.674 h 61.811 v 30.905 h -61.811 z"
           transform="matrix(0.707,-0.707,0.707,0.707,-171.951,415.127)"
           id="path598" />
        <path
           style="fill:#45d987;stroke-width:8.53334141"
           inkscape:connector-curvature="0"
           d="m 410.601,388.748 h 30.905 v 30.905 h -30.905 z"
           transform="matrix(0.707,-0.707,0.707,0.707,-161.025,419.653)"
           id="path600" />
        <circle
           style="fill:#43809f;stroke-width:8.53334141"
           cx="200.88499"
           cy="200.88499"
           r="200.88499"
           id="circle602" />
        <path
           style="fill:#3a7190;stroke-width:8.53334141"
           inkscape:connector-curvature="0"
           d="m 200.885,0 c -5.199,0 -10.353,0.198 -15.453,0.586 103.726,7.891 185.433,94.553 185.433,200.3 0,105.747 -81.707,192.409 -185.433,200.3 5.1,0.388 10.253,0.586 15.453,0.586 110.946,0 200.885,-89.939 200.885,-200.885 C 401.77,89.941 311.831,0 200.885,0 Z"
           id="path604" />
        <circle
           style="fill:#f3f3f3;stroke-width:8.53334141"
           cx="200.88499"
           cy="200.88499"
           r="169.98"
           id="circle606" />
        <path
           style="fill:#e4e4e4;stroke-width:8.53334141"
           inkscape:connector-curvature="0"
           d="m 200.885,30.905 c -5.21,0 -10.361,0.249 -15.453,0.71 86.512,7.834 154.527,80.752 154.527,169.27 0,88.518 -68.015,161.436 -154.527,169.27 5.092,0.461 10.243,0.71 15.453,0.71 93.727,0 169.98,-76.253 169.98,-169.98 0,-93.727 -76.252,-169.98 -169.98,-169.98 z"
           id="path608" />
        <g
           style="stroke-width:8.53334141"
           id="g622">
          <path
             style="fill:#29cef6;stroke-width:8.53334141"
             inkscape:connector-curvature="0"
             d="m 172.555,204.491 h -61.811 v -90.656 c 0,-2.276 1.845,-4.121 4.121,-4.121 h 53.569 c 2.276,0 4.121,1.845 4.121,4.121 z"
             id="path610" />
          <path
             style="fill:#22b5ed;stroke-width:8.53334141"
             inkscape:connector-curvature="0"
             d="m 141.65,109.714 v 94.777 h 30.905 v -90.656 c 0,-2.276 -1.845,-4.121 -4.121,-4.121 z"
             id="path612" />
          <path
             style="fill:#7be492;stroke-width:8.53334141"
             inkscape:connector-curvature="0"
             d="m 296.177,204.491 h -61.811 v -51.509 c 0,-2.276 1.845,-4.121 4.121,-4.121 h 53.569 c 2.276,0 4.121,1.845 4.121,4.121 z"
             id="path614" />
          <path
             style="fill:#45d987;stroke-width:8.53334141"
             inkscape:connector-curvature="0"
             d="m 265.272,148.861 v 55.63 h 30.905 v -51.509 c 0,-2.276 -1.845,-4.121 -4.121,-4.121 z"
             id="path616" />
          <path
             style="fill:#f78e36;stroke-width:8.53334141"
             inkscape:connector-curvature="0"
             d="M 234.366,204.491 H 172.555 V 74.688 c 0,-2.276 1.845,-4.121 4.121,-4.121 h 53.569 c 2.276,0 4.121,1.845 4.121,4.121 z"
             id="path618" />
          <path
             style="fill:#f86f1b;stroke-width:8.53334141"
             inkscape:connector-curvature="0"
             d="m 203.461,70.567 v 133.924 h 30.905 V 74.688 c 0,-2.276 -1.845,-4.121 -4.121,-4.121 z"
             id="path620" />
        </g>
        <path
           style="fill:#43809f;stroke-width:8.53334141"
           inkscape:connector-curvature="0"
           d="M 314.245,196.991 H 92.677 c -4.143,0 -7.5,3.357 -7.5,7.5 0,4.143 3.357,7.5 7.5,7.5 h 221.568 c 4.143,0 7.5,-3.357 7.5,-7.5 0,-4.143 -3.357,-7.5 -7.5,-7.5 z"
           id="path624" />
        <path
           style="fill:#29cef6;stroke-width:8.53334141"
           inkscape:connector-curvature="0"
           d="m 289.996,277.915 h -36.529 l -16.58,-42.385 c -1.133,-2.897 -3.958,-4.793 -7.051,-4.768 -3.112,0.028 -5.884,1.975 -6.966,4.893 l -22.799,61.479 -15.99,-45.322 c -0.98,-2.78 -3.498,-4.728 -6.436,-4.978 -2.942,-0.259 -5.748,1.242 -7.186,3.816 l -15.222,27.264 h -36.411 c -4.143,0 -7.5,3.357 -7.5,7.5 0,4.143 3.357,7.5 7.5,7.5 h 40.813 c 2.718,0 5.224,-1.471 6.549,-3.844 l 9.271,-16.607 17.362,49.21 c 1.05,2.979 3.854,4.979 7.013,5.005 h 0.061 c 3.133,0 5.94,-1.95 7.031,-4.893 l 23.162,-62.458 11.273,28.819 c 1.125,2.875 3.896,4.768 6.984,4.768 h 41.648 c 4.143,0 7.5,-3.357 7.5,-7.5 0,-4.143 -3.354,-7.499 -7.497,-7.499 z"
           id="path626" />
      </g>
      <g
         style="stroke-width:5.89999962"
         transform="matrix(0.04320274,-0.01202347,0.01202347,0.04320274,-252.61691,152.65803)"
         id="flat">
        <path
           style="fill:#e82f3e;stroke-width:5.89999962"
           inkscape:connector-curvature="0"
           d="M 256,160 C 149.961,160 64,245.961 64,352 a 191.238,191.238 0 0 0 18.945,83.264 L 114.8,427.3 A 160.009,160.009 0 1 1 416,352 h 32 C 448,245.961 362.039,160 256,160 Z"
           id="path663" />
        <path
           style="fill:#fbb540;stroke-width:5.89999962"
           inkscape:connector-curvature="0"
           d="m 128,352 a 128,128 0 0 1 256,0 h 32 a 160,160 0 1 0 -301.2,75.3 l 32.266,-8.067 A 127.388,127.388 0 0 1 128,352 Z"
           id="path665" />
        <path
           style="fill:#2cbff4;stroke-width:5.89999962"
           inkscape:connector-curvature="0"
           d="M 256,224 A 128.014,128.014 0 0 0 147.068,419.233 l 33.158,-8.289 A 96,96 0 1 1 352,352 h 32 A 128,128 0 0 0 256,224 Z"
           id="path667" />
        <path
           style="fill:#eaeae8;stroke-width:5.89999962"
           inkscape:connector-curvature="0"
           d="M 175.349,384.14 A 47.987,47.987 0 0 0 92.063,360.2 40.024,40.024 0 0 0 58.943,384.943 44.011,44.011 0 0 0 24,428 44,44 0 0 0 68,472 h 104 a 44,44 0 0 0 44,-44 43.993,43.993 0 0 0 -40.651,-43.86 z"
           id="path669" />
        <path
           style="fill:#eaeae8;stroke-width:5.89999962"
           inkscape:connector-curvature="0"
           d="M 447.349,304.14 A 47.987,47.987 0 0 0 364.063,280.2 40.024,40.024 0 0 0 330.943,304.943 44.011,44.011 0 0 0 296,348 a 44,44 0 0 0 44,44 h 104 a 44,44 0 0 0 44,-44 43.993,43.993 0 0 0 -40.651,-43.86 z"
           id="path671" />
        <circle
           style="fill:#fbb540;stroke-width:5.89999962"
           cx="128"
           cy="144"
           r="56"
           id="circle673" />
        <g
           style="fill:#ea9d2d;stroke-width:5.89999962"
           id="g697">
          <circle
             style="stroke-width:5.89999962"
             cx="112"
             cy="128"
             r="8"
             id="circle675" />
          <circle
             style="stroke-width:5.89999962"
             cx="144"
             cy="128"
             r="8"
             id="circle677" />
          <path
             style="stroke-width:5.89999962"
             inkscape:connector-curvature="0"
             d="m 128,163.752 a 43.8,43.8 0 0 1 -19.578,-4.6 8,8 0 1 1 7.156,-14.31 27.917,27.917 0 0 0 24.844,0 8,8 0 1 1 7.156,14.31 43.8,43.8 0 0 1 -19.578,4.6 z"
             id="path679" />
          <path
             style="stroke-width:5.89999962"
             inkscape:connector-curvature="0"
             d="m 128,64 a 8,8 0 0 1 -8,-8 V 40 a 8,8 0 0 1 16,0 v 16 a 8,8 0 0 1 -8,8 z"
             id="path681" />
          <path
             style="stroke-width:5.89999962"
             inkscape:connector-curvature="0"
             d="M 65.774,89.774 A 7.974,7.974 0 0 1 60.118,87.431 L 48.8,76.118 A 8.0030345,8.0030345 0 1 1 60.118,64.8 l 11.313,11.318 a 8,8 0 0 1 -5.657,13.656 z"
             id="path683" />
          <path
             style="stroke-width:5.89999962"
             inkscape:connector-curvature="0"
             d="M 40,152 H 24 a 8,8 0 0 1 0,-16 h 16 a 8,8 0 0 1 0,16 z"
             id="path685" />
          <path
             style="stroke-width:5.89999962"
             inkscape:connector-curvature="0"
             d="M 54.461,225.539 A 8,8 0 0 1 48.8,211.882 l 11.314,-11.313 a 8,8 0 0 1 11.313,11.313 L 60.118,223.2 a 7.976,7.976 0 0 1 -5.657,2.339 z"
             id="path687" />
          <path
             style="stroke-width:5.89999962"
             inkscape:connector-curvature="0"
             d="m 128,256 a 8,8 0 0 1 -8,-8 v -16 a 8,8 0 0 1 16,0 v 16 a 8,8 0 0 1 -8,8 z"
             id="path689" />
          <path
             style="stroke-width:5.89999962"
             inkscape:connector-curvature="0"
             d="m 201.539,225.539 a 7.976,7.976 0 0 1 -5.657,-2.343 l -11.313,-11.314 a 8,8 0 0 1 11.313,-11.313 l 11.318,11.313 a 8,8 0 0 1 -5.657,13.657 z"
             id="path691" />
          <path
             style="stroke-width:5.89999962"
             inkscape:connector-curvature="0"
             d="m 232,152 h -16 a 8,8 0 0 1 0,-16 h 16 a 8,8 0 0 1 0,16 z"
             id="path693" />
          <path
             style="stroke-width:5.89999962"
             inkscape:connector-curvature="0"
             d="M 190.226,89.774 A 8,8 0 0 1 184.569,76.118 L 195.882,64.8 A 8.0030345,8.0030345 0 0 1 207.2,76.118 l -11.318,11.313 a 7.974,7.974 0 0 1 -5.656,2.343 z"
             id="path695" />
        </g>
      </g>
      <g
         style="stroke-width:8.5333128"
         transform="matrix(0.03100594,0,0,0.03100594,-127.18747,196.37747)"
         id="g785">
        <g
           style="stroke-width:8.5333128"
           id="g765">
          <g
             style="stroke-width:8.5333128"
             id="g729">
            <path
               style="fill:#ff9eb1;stroke-width:8.5333128"
               inkscape:connector-curvature="0"
               d="m 256,240.684 c 0,20.386 -6.297,36.443 -26.578,36.16 -14.75,-0.205 -27.37,-8.14 -32.885,-20.979 -0.659,-1.535 -2.139,-2.517 -3.803,-2.512 -0.037,0 -0.072,0 -0.107,0 -25.24,0 -40.16,-13.914 -40.16,-39.28 0,-2.995 0.288,-5.922 0.833,-8.755 0.33,-1.717 -0.438,-3.45 -1.952,-4.32 -18.87,-10.864 -26.137,-24.525 -26.137,-47.948 0,-23.424 7.267,-37.087 26.137,-47.948 1.513,-0.87 2.281,-2.603 1.952,-4.322 -0.545,-2.834 -0.833,-5.758 -0.833,-8.753 0,-25.366 14.92,-39.28 40.16,-39.28 h 0.107 c 1.664,0.005 3.145,-0.977 3.803,-2.514 5.514,-12.837 18.135,-20.771 32.885,-20.977 C 249.704,28.973 256,45.029 256,65.416"
               id="path727" />
          </g>
          <g
             style="stroke-width:8.5333128"
             id="g733">
            <path
               style="fill:#ff7d97;stroke-width:8.5333128"
               inkscape:connector-curvature="0"
               d="m 256,65.416 c 0,-20.386 6.297,-36.443 26.578,-36.16 14.75,0.205 27.37,8.14 32.885,20.979 0.659,1.535 2.139,2.517 3.803,2.512 h 0.107 c 25.24,0 40.16,13.914 40.16,39.28 0,2.995 -0.288,5.922 -0.833,8.755 -0.33,1.717 0.438,3.45 1.952,4.32 18.87,10.864 26.137,24.525 26.137,47.948 0,23.424 -7.267,37.087 -26.137,47.948 -1.513,0.87 -2.281,2.603 -1.952,4.322 0.545,2.834 0.833,5.758 0.833,8.753 0,25.366 -14.92,39.28 -40.16,39.28 h -0.107 c -1.664,-0.005 -3.145,0.977 -3.803,2.514 -5.514,12.837 -18.135,20.771 -32.885,20.977 C 262.295,277.126 256,261.07 256,240.684"
               id="path731" />
          </g>
          <g
             style="stroke-width:8.5333128"
             id="g739">
            <g
               style="stroke-width:8.5333128"
               id="g737">
              <path
                 style="fill:#ffdcd5;stroke-width:8.5333128"
                 inkscape:connector-curvature="0"
                 d="m 425.048,221.139 v -75.437 c 0,-11.212 9.089,-20.303 20.303,-20.303 0.106,0 0.692,0.012 0.706,0.012 10.886,0.372 19.597,9.313 19.597,20.291 v 87.17"
                 id="path735" />
            </g>
          </g>
          <g
             style="stroke-width:8.5333128"
             id="g757">
            <g
               style="stroke-width:8.5333128"
               id="g755">
              <g
                 style="stroke-width:8.5333128"
                 id="g753">
                <g
                   style="stroke-width:8.5333128"
                   id="g745">
                  <g
                     style="stroke-width:8.5333128"
                     id="g743">
                    <path
                       style="fill:#ffdcd5;stroke-width:8.5333128"
                       inkscape:connector-curvature="0"
                       d="m 86.952,221.139 v -75.437 c 0,-11.212 -9.089,-20.303 -20.303,-20.303 -0.106,0 -0.692,0.012 -0.706,0.012 -10.886,0.372 -19.597,9.313 -19.597,20.291 v 87.17"
                       id="path741" />
                  </g>
                </g>
                <g
                   style="stroke-width:8.5333128"
                   id="g751">
                  <g
                     style="stroke-width:8.5333128"
                     id="g749">
                    <path
                       style="fill:#ffdcd5;stroke-width:8.5333128"
                       inkscape:connector-curvature="0"
                       d="m 126.256,329.713 -70.48,-73.73 c -5.173,-5.252 -7.223,-12.413 -6.168,-19.178 0.701,-4.492 2.769,-8.809 6.203,-12.278 0.068,-0.068 1.795,-1.629 1.801,-1.634 8.849,-7.205 21.895,-6.627 30.065,1.667 l 71.971,70.917 c 18.509,18.238 28.93,43.136 28.93,69.121 v 118.15 H 118.286 V 398.571 L 36.588,332.672 C 20.267,317.671 10.442,296.727 10.019,274.564 c -0.014,-0.73 -0.02,-1.466 -0.018,-2.206 0.094,-33.841 0.24,-143.966 0.24,-167.89 0,-9.959 10.546,-17.178 20.967,-16.688 10.92,0.514 19.322,9.92 19.322,20.854 v 124.239"
                       id="path747" />
                  </g>
                </g>
              </g>
            </g>
          </g>
          <g
             style="stroke-width:8.5333128"
             id="g763">
            <g
               style="stroke-width:8.5333128"
               id="g761">
              <path
                 style="fill:#ffdcd5;stroke-width:8.5333128"
                 inkscape:connector-curvature="0"
                 d="m 420.7,292.928 35.524,-36.945 c 5.173,-5.252 7.223,-12.413 6.168,-19.178 -0.701,-4.492 -2.769,-8.809 -6.203,-12.278 -0.068,-0.068 -1.795,-1.629 -1.801,-1.634 -8.849,-7.205 -21.895,-6.627 -30.065,1.667 l -71.971,70.917 c -18.509,18.238 -28.93,43.136 -28.93,69.121 v 118.15 h 70.292 v -84.177 l 81.698,-65.899 c 16.321,-15.001 26.146,-35.945 26.569,-58.108 0.014,-0.73 0.02,-1.466 0.018,-2.206 -0.094,-33.841 -0.24,-143.966 -0.24,-167.89 0,-9.959 -10.547,-17.178 -20.967,-16.688 -10.921,0.514 -19.322,9.92 -19.322,20.854 v 124.239"
                 id="path759" />
            </g>
          </g>
        </g>
        <g
           style="stroke-width:8.5333128"
           id="g783">
          <g
             style="stroke-width:8.5333128"
             id="g781">
            <g
               style="stroke-width:8.5333128"
               id="g779">
              <path
                 style="stroke-width:8.5333128"
                 inkscape:connector-curvature="0"
                 d="m 322.989,263.265 c 28.814,-1.423 46.544,-19.997 46.544,-49.192 0,-2.182 -0.127,-4.37 -0.38,-6.538 19.325,-12.344 27.636,-28.87 27.636,-54.486 0,-25.609 -8.312,-42.136 -27.636,-54.485 0.253,-2.169 0.38,-4.356 0.38,-6.538 0,-29.195 -17.73,-47.769 -46.545,-49.192 -7.717,-14.4 -22.812,-23.336 -40.271,-23.578 -10.18,-0.134 -18.515,2.928 -24.797,9.124 -0.668,0.659 -1.308,1.352 -1.921,2.077 -0.613,-0.725 -1.252,-1.418 -1.921,-2.077 -6.283,-6.196 -14.633,-9.26 -24.797,-9.124 -17.457,0.243 -32.55,9.176 -40.272,23.578 -28.814,1.423 -46.544,19.997 -46.544,49.192 0,2.182 0.128,4.37 0.38,6.538 -19.325,12.344 -27.636,28.87 -27.636,54.486 0,25.609 8.312,42.136 27.636,54.485 -0.253,2.169 -0.38,4.356 -0.38,6.538 0,29.195 17.73,47.769 46.545,49.192 7.717,14.4 22.812,23.336 40.271,23.578 0.225,0.003 0.448,0.005 0.671,0.005 9.867,0 17.982,-3.069 24.126,-9.128 0.668,-0.659 1.308,-1.352 1.921,-2.078 0.613,0.725 1.252,1.419 1.921,2.078 6.144,6.059 14.257,9.128 24.125,9.128 0.223,0 0.447,-0.002 0.671,-0.005 17.459,-0.243 32.551,-9.176 40.273,-23.578 z M 246,240.684 c 0,11.065 -2.063,18.948 -5.964,22.795 -2.363,2.33 -5.799,3.434 -10.476,3.366 -10.395,-0.144 -19.237,-5.437 -23.36,-13.89 1.402,-2.623 3.504,-4.807 6.134,-6.328 3.696,-2.137 8,-2.705 12.117,-1.599 5.331,1.434 10.819,-1.73 12.251,-7.064 1.433,-5.334 -1.73,-10.819 -7.064,-12.252 -9.287,-2.493 -18.987,-1.215 -27.315,3.601 -5.808,3.359 -10.465,8.155 -13.603,13.906 -17.426,-1.236 -26.254,-11.025 -26.254,-29.146 0,-2.304 0.22,-4.613 0.654,-6.87 1.135,-5.911 -1.594,-11.889 -6.783,-14.872 -15.598,-8.98 -21.126,-19.259 -21.126,-39.281 0,-20.024 5.528,-30.304 21.12,-39.278 5.195,-2.986 7.923,-8.963 6.788,-14.883 -0.434,-2.252 -0.653,-4.561 -0.653,-6.863 0,-19.429 10.147,-29.28 30.16,-29.28 h 0.12 c 0.292,0 0.583,-0.01 0.872,-0.027 5.121,2.154 8.005,7.863 6.528,13.42 -1.419,5.337 1.757,10.814 7.094,12.234 0.861,0.229 1.725,0.338 2.576,0.338 4.422,0 8.467,-2.956 9.658,-7.433 3.274,-12.31 -1.264,-24.905 -10.544,-32.46 4.695,-5.898 12.145,-9.446 20.631,-9.564 4.684,-0.067 8.112,1.036 10.476,3.366 3.901,3.847 5.963,11.73 5.963,22.796 z m 65.854,-10.723 c 1.419,-5.337 -1.757,-10.814 -7.094,-12.234 -5.336,-1.42 -10.815,1.757 -12.234,7.094 -3.274,12.311 1.264,24.905 10.544,32.46 -4.695,5.898 -12.146,9.446 -20.631,9.564 -4.685,0.08 -8.113,-1.036 -10.476,-3.366 C 268.062,259.632 266,251.749 266,240.684 V 65.416 c 0,-11.065 2.063,-18.948 5.964,-22.795 2.363,-2.33 5.79,-3.434 10.476,-3.366 10.395,0.144 19.237,5.437 23.36,13.89 -1.402,2.623 -3.504,4.807 -6.134,6.328 -3.696,2.137 -7.999,2.705 -12.117,1.599 -5.331,-1.433 -10.819,1.73 -12.251,7.064 -1.433,5.333 1.73,10.819 7.064,12.251 3.102,0.833 6.249,1.245 9.377,1.245 6.236,0 12.392,-1.639 17.938,-4.846 5.808,-3.359 10.465,-8.155 13.603,-13.906 17.426,1.236 26.254,11.025 26.254,29.146 0,2.304 -0.22,4.613 -0.654,6.87 -1.135,5.911 1.594,11.889 6.783,14.872 15.598,8.98 21.126,19.259 21.126,39.281 0,20.024 -5.528,30.304 -21.12,39.278 -5.195,2.986 -7.923,8.963 -6.789,14.883 0.434,2.252 0.653,4.561 0.653,6.863 0,19.429 -10.147,29.28 -30.16,29.28 h -0.078 c -0.308,-0.001 -0.613,0.008 -0.917,0.026 -5.118,-2.154 -8.001,-7.863 -6.524,-13.418 z"
                 id="path767" />
              <path
                 style="stroke-width:8.5333128"
                 inkscape:connector-curvature="0"
                 d="m 199.278,132.583 c -11.829,0 -22.113,6.749 -26.838,17.613 -4.699,10.803 -2.64,22.854 5.375,31.454 0.385,0.413 0.779,0.821 1.182,1.223 1.952,1.949 4.509,2.923 7.065,2.923 2.562,0 5.124,-0.979 7.077,-2.935 3.902,-3.908 3.897,-10.24 -0.011,-14.142 -0.234,-0.233 -0.463,-0.471 -0.684,-0.708 -3.759,-4.034 -2.224,-8.55 -1.663,-9.838 0.57,-1.311 2.869,-5.59 8.498,-5.59 5.523,0 10,-4.477 10,-10 -0.001,-5.523 -4.478,-10 -10.001,-10 z"
                 id="path769" />
              <path
                 style="stroke-width:8.5333128"
                 inkscape:connector-curvature="0"
                 d="m 318.873,168.719 c -3.909,3.902 -3.913,10.234 -0.011,14.142 1.954,1.957 4.515,2.935 7.077,2.935 2.557,0 5.114,-0.975 7.065,-2.923 0.403,-0.402 0.797,-0.811 1.184,-1.225 8.013,-8.597 10.071,-20.648 5.372,-31.451 -4.725,-10.864 -15.009,-17.613 -26.838,-17.613 -5.523,0 -10,4.477 -10,10 0,5.523 4.477,10 10,10 5.629,0 7.928,4.279 8.498,5.59 0.561,1.288 2.096,5.804 -1.661,9.835 -0.223,0.24 -0.452,0.477 -0.686,0.71 z"
                 id="path771" />
              <path
                 style="stroke-width:8.5333128"
                 inkscape:connector-curvature="0"
                 d="M 166.665,288.354 96.952,219.661 v -73.959 c 0,-16.709 -13.594,-30.303 -30.303,-30.303 -0.158,0 -1.03,0.018 -1.048,0.018 -1.709,0.059 -3.406,0.265 -5.071,0.61 v -7.393 C 60.53,92.1 47.857,78.552 31.678,77.791 23.076,77.382 14.316,80.598 8.253,86.383 3.085,91.311 0.24,97.734 0.24,104.467 0.24,128.053 0.096,237.934 0,272.331 c -0.002,0.812 0.004,1.618 0.02,2.423 0.468,24.509 11.33,48.303 29.8,65.279 0.158,0.146 0.321,0.286 0.489,0.421 l 77.976,62.897 v 79.396 c 0,5.523 4.477,10 10,10 h 70.292 c 5.523,0 10,-4.477 10,-10 v -118.15 c 0,-28.471 -11.631,-56.26 -31.912,-76.243 z M 66.229,135.407 l 0.419,-0.008 c 5.681,0 10.303,4.622 10.303,10.303 v 62.556 c -5.465,-0.897 -11.127,-0.377 -16.423,1.591 v -72.438 c 1.661,-1.231 3.618,-1.921 5.701,-2.004 z M 178.577,472.748 H 128.285 V 398.57 c 0,-3.024 -1.368,-5.885 -3.722,-7.784 L 43.125,325.097 C 28.797,311.814 20.378,293.344 20.016,274.376 c -0.012,-0.66 -0.018,-1.324 -0.016,-1.991 0.095,-34.407 0.24,-144.325 0.24,-167.918 0,-1.248 0.611,-2.463 1.817,-3.614 2.12,-2.022 5.523,-3.227 8.68,-3.085 5.399,0.254 9.792,5.128 9.792,10.865 v 122.916 c -0.337,1.214 -0.605,2.454 -0.802,3.715 -1.569,10.068 1.744,20.407 8.866,27.676 l 70.435,73.683 c 3.816,3.992 10.146,4.135 14.139,0.318 3.992,-3.816 4.135,-10.147 0.318,-14.139 l -70.48,-73.73 c -0.034,-0.036 -0.069,-0.071 -0.104,-0.106 -2.781,-2.824 -4.025,-6.695 -3.413,-10.62 0.392,-2.509 1.525,-4.798 3.296,-6.648 0.32,-0.292 0.975,-0.885 1.31,-1.187 4.962,-3.9 11.999,-3.46 16.457,1.065 0.035,0.036 0.07,0.07 0.105,0.105 l 71.971,70.917 c 16.491,16.249 25.949,38.846 25.949,61.998 v 108.152 z"
                 id="path773" />
              <path
                 style="stroke-width:8.5333128"
                 inkscape:connector-curvature="0"
                 d="m 511.76,104.467 c 0,-6.733 -2.845,-13.156 -8.012,-18.085 -6.063,-5.785 -14.815,-8.993 -23.425,-8.592 -16.179,0.761 -28.853,14.309 -28.853,30.843 v 7.392 c -1.662,-0.344 -3.354,-0.55 -5.057,-0.608 -0.021,0 -0.902,-0.019 -1.063,-0.019 -16.71,0 -30.303,13.594 -30.303,30.303 v 73.959 l -69.713,68.693 c -20.28,19.983 -31.912,47.772 -31.912,76.244 v 118.15 c 0,5.523 4.477,10 10,10 h 70.292 c 5.523,0 10,-4.477 10,-10 v -79.396 l 77.976,-62.897 c 0.168,-0.135 0.331,-0.275 0.489,-0.421 18.47,-16.977 29.333,-40.77 29.8,-65.283 0.015,-0.801 0.021,-1.607 0.019,-2.421 -0.094,-34.395 -0.238,-144.276 -0.238,-167.862 z m -66.474,30.931 0.489,0.009 c 2.081,0.083 4.037,0.773 5.696,2.004 v 72.433 c -5.293,-1.966 -10.956,-2.485 -16.423,-1.587 v -62.556 c 0,-5.68 4.622,-10.302 10.238,-10.303 z m 46.698,138.975 c -0.362,18.972 -8.781,37.442 -23.109,50.725 l -81.439,65.689 c -2.353,1.898 -3.722,4.76 -3.722,7.784 v 74.177 h -50.292 v -108.15 c 0,-23.151 9.458,-45.749 25.949,-61.998 l 71.97,-70.917 c 0.036,-0.035 0.071,-0.07 0.105,-0.105 4.461,-4.528 11.508,-4.967 16.453,-1.07 0.335,0.302 0.997,0.902 1.318,1.194 1.764,1.838 2.901,4.13 3.292,6.644 0.612,3.926 -0.631,7.797 -3.413,10.621 -0.028,0.028 -0.056,0.057 -0.083,0.085 l -35.524,36.945 c -3.828,3.981 -3.704,10.311 0.277,14.14 3.98,3.827 10.311,3.705 14.14,-0.277 l 35.49,-36.91 c 7.128,-7.27 10.444,-17.613 8.874,-27.686 -0.197,-1.261 -0.465,-2.501 -0.802,-3.714 V 108.633 c 0,-5.737 4.393,-10.611 9.792,-10.865 3.16,-0.142 6.56,1.063 8.68,3.085 1.206,1.15 1.817,2.366 1.817,3.614 0,23.594 0.145,133.511 0.24,167.917 0.004,0.668 -0.001,1.333 -0.013,1.989 z"
                 id="path775" />
              <path
                 style="stroke-width:8.5333128"
                 inkscape:connector-curvature="0"
                 d="m 398.53,321.88 c -1.638,-3.995 -5.828,-6.524 -10.127,-6.135 -4.127,0.374 -7.694,3.361 -8.758,7.369 -1.058,3.985 0.483,8.308 3.833,10.717 3.384,2.434 8.083,2.471 11.507,0.094 3.821,-2.651 5.336,-7.746 3.545,-12.045 z"
                 id="path777" />
            </g>
          </g>
        </g>
      </g>
      <g
         style="stroke-width:8.53333378"
         transform="matrix(0.6308321,0.19894217,-0.19894217,0.6308321,-139.99529,141.35163)"
         id="g876">
        <path
           style="fill:#00bcd4;stroke-width:8.53333378"
           inkscape:connector-curvature="0"
           d="M 18.673,5.927 C 17.361,3.528 14.789,2 12,2 8.455,2 5.381,4.465 4.604,7.829 2.02,8.101 0,10.271 0,12.9 0,15.712 2.312,18 5.152,18 H 17.869 C 21.25,18 24,15.278 24,11.933 24,8.867 21.693,6.308 18.673,5.927 Z"
           id="path824" />
        <path
           style="fill:#00a4b9;stroke-width:8.53333378"
           inkscape:connector-curvature="0"
           d="m 12,11.5 h -0.25 c -0.138,0 -0.25,0.112 -0.25,0.25 v 2.5 c 0,0.138 0.112,0.25 0.25,0.25 H 12 Z M 12,2 C 8.455,2 5.381,4.465 4.604,7.829 2.02,8.101 0,10.271 0,12.9 0,15.712 2.312,18 5.152,18 H 12 V 16 H 11.75 C 10.785,16 10,15.215 10,14.25 v -2.5 C 10,10.785 10.785,10 11.75,10 H 12 Z"
           id="path826" />
        <path
           style="fill:#607d8b;stroke-width:8.53333378"
           inkscape:connector-curvature="0"
           d="M 13.25,24 C 12.836,24 12.5,23.664 12.5,23.25 v -4.5 C 12.5,18.336 12.836,18 13.25,18 13.664,18 14,18.336 14,18.75 v 4.5 C 14,23.664 13.664,24 13.25,24 Z"
           id="path828" />
        <path
           style="fill:#ffffff;stroke-width:8.53333378"
           inkscape:connector-curvature="0"
           d="m 12.25,16 h -0.5 C 10.785,16 10,15.215 10,14.25 v -2.5 C 10,10.785 10.785,10 11.75,10 h 0.5 c 0.965,0 1.75,0.785 1.75,1.75 v 2.5 C 14,15.215 13.215,16 12.25,16 Z m -0.5,-4.5 c -0.138,0 -0.25,0.112 -0.25,0.25 v 2.5 c 0,0.138 0.112,0.25 0.25,0.25 h 0.5 c 0.138,0 0.25,-0.112 0.25,-0.25 v -2.5 c 0,-0.138 -0.112,-0.25 -0.25,-0.25 z"
           id="path830" />
        <path
           style="fill:#dedede;stroke-width:8.53333378"
           inkscape:connector-curvature="0"
           d="M 12,10 H 11.75 C 10.785,10 10,10.785 10,11.75 v 2.5 C 10,15.215 10.785,16 11.75,16 H 12 v -1.5 h -0.25 c -0.138,0 -0.25,-0.112 -0.25,-0.25 v -2.5 c 0,-0.138 0.112,-0.25 0.25,-0.25 H 12 Z"
           id="path832" />
        <path
           style="fill:#ffffff;stroke-width:8.53333378"
           inkscape:connector-curvature="0"
           d="M 7.75,16 C 7.336,16 7,15.664 7,15.25 v -4.5 C 7,10.336 7.336,10 7.75,10 8.164,10 8.5,10.336 8.5,10.75 v 4.5 C 8.5,15.664 8.164,16 7.75,16 Z"
           id="path834" />
        <path
           style="fill:#ffffff;stroke-width:8.53333378"
           inkscape:connector-curvature="0"
           d="M 16.25,16 C 15.836,16 15.5,15.664 15.5,15.25 v -4.5 C 15.5,10.336 15.836,10 16.25,10 16.664,10 17,10.336 17,10.75 v 4.5 C 17,15.664 16.664,16 16.25,16 Z"
           id="path836" />
        <path
           style="fill:#607d8b;stroke-width:8.53333378"
           inkscape:connector-curvature="0"
           d="M 16.25,24 C 15.836,24 15.5,23.664 15.5,23.25 v -4.5 C 15.5,18.336 15.836,18 16.25,18 16.664,18 17,18.336 17,18.75 v 4.5 C 17,23.664 16.664,24 16.25,24 Z"
           id="path838" />
        <path
           style="fill:#607d8b;stroke-width:8.53333378"
           inkscape:connector-curvature="0"
           d="M 9.25,24 H 8.75 C 7.785,24 7,23.215 7,22.25 v -2.5 C 7,18.785 7.785,18 8.75,18 h 0.5 c 0.965,0 1.75,0.785 1.75,1.75 v 2.5 C 11,23.215 10.215,24 9.25,24 Z m -0.5,-4.5 c -0.138,0 -0.25,0.112 -0.25,0.25 v 2.5 c 0,0.138 0.112,0.25 0.25,0.25 h 0.5 c 0.138,0 0.25,-0.112 0.25,-0.25 v -2.5 C 9.5,19.612 9.388,19.5 9.25,19.5 Z"
           id="path840" />
        <path
           style="fill:#dedede;stroke-width:8.53333378"
           inkscape:connector-curvature="0"
           d="M 7.75,10 C 7.336,10 7,10.336 7,10.75 v 4.5 C 7,15.664 7.336,16 7.75,16 Z"
           id="path842" />
        <path
           style="fill:#dedede;stroke-width:8.53333378"
           inkscape:connector-curvature="0"
           d="m 16.25,10 c -0.414,0 -0.75,0.336 -0.75,0.75 v 4.5 c 0,0.414 0.336,0.75 0.75,0.75 z"
           id="path844" />
        <g
           style="fill:#546d79;stroke-width:8.53333378"
           id="g852">
          <path
             style="stroke-width:8.53333378"
             inkscape:connector-curvature="0"
             d="m 16.25,18 c -0.414,0 -0.75,0.336 -0.75,0.75 v 4.5 c 0,0.414 0.336,0.75 0.75,0.75 z"
             id="path846" />
          <path
             style="stroke-width:8.53333378"
             inkscape:connector-curvature="0"
             d="m 13.25,18 c -0.414,0 -0.75,0.336 -0.75,0.75 v 4.5 c 0,0.414 0.336,0.75 0.75,0.75 z"
             id="path848" />
          <path
             style="stroke-width:8.53333378"
             inkscape:connector-curvature="0"
             d="M 9,18 H 8.75 C 7.785,18 7,18.785 7,19.75 v 2.5 C 7,23.215 7.785,24 8.75,24 H 9 V 22.5 H 8.75 C 8.612,22.5 8.5,22.388 8.5,22.25 v -2.5 C 8.5,19.612 8.612,19.5 8.75,19.5 H 9 Z"
             id="path850" />
        </g>
      </g>
      <text
         id="text880"
         y="175.01443"
         x="-136.79512"
         style="font-style:normal;font-variant:normal;font-weight:normal;font-stretch:normal;font-size:11.28888893px;line-height:1;font-family:Chilanka;-inkscape-font-specification:Chilanka;text-align:center;letter-spacing:0px;word-spacing:0px;text-anchor:middle;fill:#ffffff;fill-opacity:1;stroke:none;stroke-width:0.26458332"
         xml:space="preserve"><tspan
           style="font-style:normal;font-variant:normal;font-weight:normal;font-stretch:normal;font-size:11.28888893px;line-height:1;font-family:Chilanka;-inkscape-font-specification:Chilanka;text-align:center;text-anchor:middle;fill:#ffffff;stroke-width:0.26458332"
           y="175.01443"
           x="-136.79512"
           id="tspan878"
           sodipodi:role="line">NRT Online Library for</tspan><tspan
           id="tspan882"
           style="font-style:normal;font-variant:normal;font-weight:normal;font-stretch:normal;font-size:11.28888893px;line-height:1;font-family:Chilanka;-inkscape-font-specification:Chilanka;text-align:center;text-anchor:middle;fill:#ffffff;stroke-width:0.26458332"
           y="186.30333"
           x="-136.79512"
           sodipodi:role="line">Data Science &amp; Human Behavior</tspan></text>
    </g>
  </g>
</svg>
