<?xml version="1.0" encoding="UTF-8" standalone="no"?>
<!-- Generator: Adobe Illustrator 19.0.0, SVG Export Plug-In . SVG Version: 6.00 Build 0)  -->

<svg
   xmlns:dc="http://purl.org/dc/elements/1.1/"
   xmlns:cc="http://creativecommons.org/ns#"
   xmlns:rdf="http://www.w3.org/1999/02/22-rdf-syntax-ns#"
   xmlns:svg="http://www.w3.org/2000/svg"
   xmlns="http://www.w3.org/2000/svg"
   xmlns:sodipodi="http://sodipodi.sourceforge.net/DTD/sodipodi-0.dtd"
   xmlns:inkscape="http://www.inkscape.org/namespaces/inkscape"
   version="1.1"
   id="Capa_1"
   x="0px"
   y="0px"
   viewBox="0 0 98 101"
   xml:space="preserve"
   sodipodi:docname="magic-wand.svg"
   inkscape:version="0.92.3 (2405546, 2018-03-11)"
   width="98"
   height="101"><metadata
   id="metadata67"><rdf:RDF><cc:Work
       rdf:about=""><dc:format>image/svg+xml</dc:format><dc:type
         rdf:resource="http://purl.org/dc/dcmitype/StillImage" /><dc:title></dc:title></cc:Work></rdf:RDF></metadata><defs
   id="defs65" /><sodipodi:namedview
   pagecolor="#ffffff"
   bordercolor="#666666"
   borderopacity="1"
   objecttolerance="10"
   gridtolerance="10"
   guidetolerance="10"
   inkscape:pageopacity="0"
   inkscape:pageshadow="2"
   inkscape:window-width="1600"
   inkscape:window-height="870"
   id="namedview63"
   showgrid="false"
   inkscape:zoom="0.81066706"
   inkscape:cx="299.56381"
   inkscape:cy="210.30035"
   inkscape:window-x="1600"
   inkscape:window-y="0"
   inkscape:window-maximized="1"
   inkscape:current-layer="Capa_1" />










<g
   id="g88"
   transform="matrix(0.19531231,0,0,0.19531231,-4.0120232e-4,0.49415708)"
   style="stroke-width:5.12000513"><path
     id="path2"
     d="m 498.576,33.193 -174.531,182.735 11.614,11.614 c 0,0 -51.771,31.576 -69.259,50.386 l -78.298,84.201 -21.02,-21.01 -14.973,-14.973 18.679,-17.366 c 17.966,-17.966 31.708,-53.176 31.708,-53.176 L 214.772,267.88 481.058,15.604 c 2.402,-2.27 5.466,-3.41 8.54,-3.41 3.186,0 6.362,1.221 8.785,3.644 0.224,0.224 0.438,0.458 0.641,0.692 4.123,4.794 4,12.011 -0.448,16.663 z"
     style="fill:#ef8c33;stroke-width:17.47630119"
     inkscape:connector-curvature="0" /><g
     id="g8"
     style="stroke-width:5.12000513">
	<path
   id="path4"
   d="m 307.401,94.864 18.904,-3.832 c 8.925,-1.81 8.925,-14.564 0,-16.373 L 307.401,70.827 C 288.772,67.051 274.213,52.49 270.436,33.862 l -3.832,-18.904 c -1.81,-8.925 -14.564,-8.925 -16.373,0 l -3.832,18.904 c -3.776,18.629 -18.337,33.188 -36.965,36.965 l -18.904,3.832 c -8.925,1.81 -8.925,14.564 0,16.373 l 18.904,3.832 c 18.629,3.776 33.188,18.337 36.965,36.965 l 3.832,18.904 c 1.81,8.925 14.564,8.925 16.373,0 l 3.832,-18.904 c 3.777,-18.628 18.336,-33.187 36.965,-36.965 z"
   style="fill:#f9d366;stroke-width:5.12000513"
   inkscape:connector-curvature="0" />
	<path
   id="path6"
   d="m 475.893,330.566 21.027,-4.263 c 9.927,-2.012 9.927,-16.2 0,-18.212 l -21.027,-4.263 c -20.721,-4.201 -36.915,-20.396 -41.116,-41.116 l -4.263,-21.027 c -2.012,-9.927 -16.2,-9.927 -18.212,0 l -4.263,21.027 c -4.201,20.721 -20.396,36.915 -41.116,41.116 l -21.027,4.263 c -9.927,2.012 -9.927,16.2 0,18.212 l 21.027,4.263 c 20.721,4.201 36.915,20.396 41.116,41.116 l 4.263,21.027 c 2.012,9.927 16.2,9.927 18.212,0 l 4.263,-21.027 c 4.201,-20.72 20.394,-36.915 41.116,-41.116 z"
   style="fill:#f9d366;stroke-width:5.12000513"
   inkscape:connector-curvature="0" />
</g><path
     id="path10"
     d="M 193.86,367.893 C 177.066,351.099 160.271,334.304 143.477,317.51 103.317,367.637 57.762,413.192 7.634,453.352 24.428,470.146 41.223,486.941 58.017,503.735 98.178,453.607 143.733,408.052 193.86,367.893 Z"
     style="fill:#ef8c33;stroke-width:17.47630119"
     inkscape:connector-curvature="0" /><g
     id="g16"
     style="stroke-width:5.12000513">
	<path
   id="path12"
   d="m 159.254,333.286 c -5.26,-5.26 -10.518,-10.518 -15.778,-15.778 -40.16,50.128 -85.715,95.683 -135.843,135.843 5.26,5.26 10.518,10.518 15.778,15.778 50.128,-40.16 95.684,-85.715 135.843,-135.843 z"
   style="fill:#d87625;stroke-width:5.12000513"
   inkscape:connector-curvature="0" />
	<path
   id="path14"
   d="m 499.024,16.53 -261.012,256.381 -70.928,68.21 -14.973,-14.973 18.679,-17.366 c 17.966,-17.966 31.708,-53.176 31.708,-53.176 l 12.276,12.276 266.284,-252.278 c 2.402,-2.27 5.466,-3.41 8.54,-3.41 3.186,0 6.362,1.221 8.785,3.644 0.224,0.224 0.437,0.458 0.641,0.692 z"
   style="fill:#d87625;stroke-width:5.12000513"
   inkscape:connector-curvature="0" />
</g><path
     id="path18"
     d="m 181.691,172.337 c 4.216,0 7.634,-3.418 7.634,-7.634 v -20.231 c 0,-4.216 -3.418,-7.634 -7.634,-7.634 -4.216,0 -7.634,3.418 -7.634,7.634 v 20.231 c 0,4.216 3.418,7.634 7.634,7.634 z"
     inkscape:connector-curvature="0"
     style="stroke-width:5.12000513" /><path
     id="path20"
     d="m 181.691,226.805 c 4.216,0 7.634,-3.418 7.634,-7.634 V 198.94 c 0,-4.216 -3.418,-7.634 -7.634,-7.634 -4.216,0 -7.634,3.418 -7.634,7.634 v 20.231 c 0,4.215 3.418,7.634 7.634,7.634 z"
     inkscape:connector-curvature="0"
     style="stroke-width:5.12000513" /><path
     id="path22"
     d="m 198.809,174.187 c -4.216,0 -7.634,3.418 -7.634,7.634 0,4.216 3.418,7.634 7.634,7.634 h 20.231 c 4.216,0 7.634,-3.418 7.634,-7.634 0,-4.216 -3.418,-7.634 -7.634,-7.634 z"
     inkscape:connector-curvature="0"
     style="stroke-width:5.12000513" /><path
     id="path24"
     d="m 144.342,189.455 h 20.231 c 4.216,0 7.634,-3.418 7.634,-7.634 0,-4.216 -3.418,-7.634 -7.634,-7.634 h -20.231 c -4.216,0 -7.634,3.418 -7.634,7.634 0,4.216 3.418,7.634 7.634,7.634 z"
     inkscape:connector-curvature="0"
     style="stroke-width:5.12000513" /><path
     id="path26"
     d="m 189.011,98.514 18.904,3.832 c 15.657,3.175 27.825,15.343 30.999,31 l 3.833,18.904 c 1.529,7.543 7.972,12.81 15.669,12.81 7.697,0 14.141,-5.268 15.67,-12.81 l 3.832,-18.904 c 3.175,-15.657 15.343,-27.826 31,-31 l 18.904,-3.832 c 7.543,-1.53 12.811,-7.973 12.811,-15.67 0,-7.697 -5.269,-14.139 -12.811,-15.669 l -18.904,-3.832 c -15.657,-3.174 -27.826,-15.343 -31,-31 l -3.832,-18.904 c -1.529,-7.543 -7.972,-12.81 -15.67,-12.81 -7.696,0 -14.14,5.268 -15.669,12.81 l -3.833,18.904 c -3.175,15.657 -15.342,27.826 -30.999,31 l -18.904,3.832 c -7.543,1.53 -12.81,7.973 -12.81,15.669 -0.001,7.697 5.267,14.14 12.81,15.67 z m 3.034,-16.374 18.904,-3.832 c 21.682,-4.396 38.534,-21.248 42.93,-42.93 l 3.832,-18.904 c 0.07,-0.347 0.117,-0.576 0.704,-0.576 0.588,0 0.634,0.229 0.704,0.576 l 3.832,18.904 c 4.396,21.683 21.248,38.534 42.931,42.93 l 18.904,3.832 c 0.347,0.07 0.576,0.117 0.576,0.704 0,0.588 -0.23,0.635 -0.576,0.704 l -18.904,3.832 c -21.684,4.396 -38.534,21.248 -42.931,42.93 l -3.832,18.904 c -0.07,0.347 -0.116,0.576 -0.704,0.576 -0.587,0 -0.634,-0.229 -0.704,-0.576 l -3.832,-18.904 c -4.396,-21.683 -21.248,-38.534 -42.93,-42.93 l -18.904,-3.832 c -0.347,-0.07 -0.576,-0.117 -0.576,-0.704 0,-0.587 0.229,-0.633 0.576,-0.704 z"
     inkscape:connector-curvature="0"
     style="stroke-width:5.12000513" /><path
     id="path28"
     d="m 498.437,300.609 -21.027,-4.263 c -17.753,-3.599 -31.551,-17.397 -35.15,-35.151 l -4.263,-21.027 c -1.619,-7.986 -8.44,-13.563 -16.589,-13.563 -8.148,0 -14.969,5.577 -16.589,13.563 l -4.263,21.027 c -3.599,17.754 -17.397,31.552 -35.151,35.151 l -21.026,4.263 c -7.985,1.618 -13.563,8.44 -13.563,16.588 0,8.148 5.577,14.969 13.563,16.588 l 21.026,4.263 c 17.754,3.599 31.552,17.397 35.151,35.151 l 4.263,21.027 c 1.62,7.986 8.44,13.563 16.589,13.563 8.148,0 14.969,-5.577 16.589,-13.563 l 4.263,-21.027 c 3.599,-17.754 17.397,-31.552 35.15,-35.151 l 21.027,-4.263 c 7.986,-1.618 13.563,-8.44 13.563,-16.588 0,-8.148 -5.578,-14.97 -13.563,-16.588 z m -3.034,18.211 -21.027,4.263 c -23.779,4.821 -42.261,23.302 -47.081,47.081 l -4.263,21.027 c -0.08,0.397 -0.27,1.328 -1.625,1.328 -1.355,0 -1.544,-0.931 -1.625,-1.328 l -4.263,-21.027 c -4.821,-23.779 -23.302,-42.261 -47.082,-47.081 l -21.026,-4.263 c -0.398,-0.08 -1.328,-0.27 -1.328,-1.624 0,-1.354 0.93,-1.543 1.328,-1.624 l 21.026,-4.263 c 23.78,-4.821 42.262,-23.302 47.082,-47.081 l 4.263,-21.027 c 0.08,-0.397 0.27,-1.328 1.625,-1.328 1.355,0 1.544,0.931 1.625,1.328 l 4.263,21.027 c 4.821,23.78 23.302,42.261 47.081,47.081 l 21.027,4.263 c 0.398,0.08 1.328,0.269 1.328,1.624 0,1.355 -0.931,1.544 -1.328,1.624 z"
     inkscape:connector-curvature="0"
     style="stroke-width:5.12000513" /><g
     id="g70"
     style="stroke-width:5.12000513"><path
       d="m 343.235,228.442 c 0.277,-2.325 -0.527,-4.648 -2.182,-6.303 L 334.721,215.807 504.1,38.466 c 7.463,-7.814 7.319,-20.389 -0.322,-28.029 -7.739,-7.738 -20.025,-7.906 -27.971,-0.378 l -260.89,247.173 -7.021,-7.021 c -1.823,-1.823 -4.441,-2.603 -6.965,-2.073 -2.522,0.529 -4.608,2.294 -5.546,4.696 -0.131,0.337 -13.3,33.776 -29.896,50.451 l -13.184,12.259 -3.431,-3.431 c -1.535,-1.535 -3.654,-2.341 -5.817,-2.225 -2.167,0.119 -4.182,1.155 -5.538,2.849 -39.745,49.608 -85.05,94.914 -134.659,134.658 -1.694,1.357 -2.73,3.371 -2.849,5.538 -0.119,2.167 0.69,4.283 2.225,5.817 l 50.384,50.384 c 1.435,1.436 3.378,2.236 5.398,2.236 0.139,0 0.28,-0.004 0.42,-0.011 2.167,-0.119 4.182,-1.155 5.538,-2.849 39.744,-49.609 85.05,-94.915 134.658,-134.658 1.694,-1.357 2.73,-3.371 2.849,-5.538 0.119,-2.167 -0.69,-4.283 -2.225,-5.817 l -0.553,-0.553 73.285,-78.817 c 16.575,-17.826 67.131,-48.76 67.64,-49.07 1.999,-1.221 3.328,-3.29 3.605,-5.615 z M 76.55,469.74 56.931,450.12 c -2.981,-2.981 -7.816,-2.981 -10.796,0 -2.981,2.981 -2.981,7.816 0,10.796 l 20.434,20.434 c -3.076,3.642 -6.134,7.298 -9.149,10.989 L 19.032,453.951 C 58.126,422.003 94.505,386.636 127.588,348.472 l 21.975,21.975 c 1.49,1.49 3.445,2.236 5.398,2.236 1.953,0 3.908,-0.745 5.398,-2.236 2.981,-2.981 2.981,-7.816 0,-10.796 l -22.832,-22.832 c 2.198,-2.626 4.384,-5.263 6.551,-7.914 l 38.388,38.388 c -38.058,31.1 -73.541,65.442 -105.916,102.447 z m 184.26,-197.012 -72.908,78.41 -24.792,-24.792 12.881,-11.977 c 0.068,-0.063 0.134,-0.127 0.2,-0.192 12.712,-12.712 23.19,-32.916 28.859,-45.221 l 4.326,4.326 9.043,9.043 c 1.49,1.49 3.445,2.236 5.398,2.236 1.953,0 3.908,-0.745 5.398,-2.236 2.981,-2.981 2.981,-7.816 0,-10.796 l -3.498,-3.498 260.591,-246.888 c 1.895,-1.796 4.825,-1.756 6.673,0.091 1.823,1.823 1.857,4.822 0.076,6.687 l -169.136,177.086 -3.914,-3.914 c -2.98,-2.982 -7.814,-2.981 -10.796,0 -2.981,2.981 -2.981,7.815 10e-4,10.796 l 9.427,9.427 c 0.003,0.003 0.006,0.007 0.009,0.01 l 4.818,4.818 C 307.915,236 274.669,257.823 260.81,272.728 Z"
       id="path30"
       inkscape:connector-curvature="0"
       style="stroke-width:5.12000513" /></g></g>
<g
   id="g32"
   transform="translate(0,-410.99899)">
</g>
<g
   id="g34"
   transform="translate(0,-410.99899)">
</g>
<g
   id="g36"
   transform="translate(0,-410.99899)">
</g>
<g
   id="g38"
   transform="translate(0,-410.99899)">
</g>
<g
   id="g40"
   transform="translate(0,-410.99899)">
</g>
<g
   id="g42"
   transform="translate(0,-410.99899)">
</g>
<g
   id="g44"
   transform="translate(0,-410.99899)">
</g>
<g
   id="g46"
   transform="translate(0,-410.99899)">
</g>
<g
   id="g48"
   transform="translate(0,-410.99899)">
</g>
<g
   id="g50"
   transform="translate(0,-410.99899)">
</g>
<g
   id="g52"
   transform="translate(0,-410.99899)">
</g>
<g
   id="g54"
   transform="translate(0,-410.99899)">
</g>
<g
   id="g56"
   transform="translate(0,-410.99899)">
</g>
<g
   id="g58"
   transform="translate(0,-410.99899)">
</g>
<g
   id="g60"
   transform="translate(0,-410.99899)">
</g>
</svg>